<svg width="22" height="22" viewBox="0 0 22 22" fill="none" xmlns="http://www.w3.org/2000/svg">
<rect opacity="0.7" width="21.9013" height="21.9013" rx="10.9506" fill="#333333"/>
<path d="M13.0144 10.881C13.0144 12.4129 12.7309 13.7691 12.2992 14.7187C11.8417 15.7253 11.3388 16.046 11.0116 16.046C10.6845 16.046 10.1816 15.7253 9.72405 14.7187C9.29243 13.7691 9.00891 12.4129 9.00891 10.881C9.00891 9.34914 9.29243 7.99291 9.72405 7.04334C10.1816 6.03669 10.6845 5.71606 11.0116 5.71606C11.3388 5.71606 11.8417 6.03669 12.2992 7.04334C12.7309 7.99291 13.0144 9.34914 13.0144 10.881Z" stroke="white" stroke-width="1.26489"/>
<path d="M11.0117 12.8836C9.4798 12.8836 8.12357 12.6001 7.17401 12.1685C6.16735 11.7109 5.84672 11.2081 5.84672 10.8809C5.84672 10.5537 6.16735 10.0509 7.17401 9.59331C8.12357 9.16169 9.4798 8.87817 11.0117 8.87817C12.5436 8.87817 13.8998 9.16169 14.8494 9.59331C15.856 10.0509 16.1766 10.5537 16.1766 10.8809C16.1766 11.2081 15.856 11.7109 14.8494 12.1685C13.8998 12.6001 12.5436 12.8836 11.0117 12.8836Z" stroke="white" stroke-width="1.26489"/>
</svg>
