<svg width="20" height="20" viewBox="0 0 20 20" fill="none" xmlns="http://www.w3.org/2000/svg">
<path fill-rule="evenodd" clip-rule="evenodd" d="M0.80249 11.9298C0.80249 11.5396 1.15915 11.2233 1.5991 11.2233H4.01922C4.45918 11.2233 4.81584 11.5396 4.81584 11.9298V16.9382C4.81584 17.3284 4.45918 17.6447 4.01922 17.6447H1.5991C1.15915 17.6447 0.80249 17.3284 0.80249 16.9382V11.9298ZM2.39572 12.6364V16.2316H3.22261V12.6364H2.39572Z" fill="#26D07C"/>
<path fill-rule="evenodd" clip-rule="evenodd" d="M15.3875 8.89862C15.3875 8.45531 15.7468 8.09595 16.1901 8.09595H19.1972C19.6405 8.09595 19.9999 8.45531 19.9999 8.89862C19.9999 9.34192 19.6405 9.70129 19.1972 9.70129H16.1901C15.7468 9.70129 15.3875 9.34192 15.3875 8.89862Z" fill="#26D07C"/>
<path fill-rule="evenodd" clip-rule="evenodd" d="M15.4859 11.7997C15.6985 11.4107 16.1862 11.2677 16.5752 11.4802L19.2485 12.941C19.6375 13.1536 19.7805 13.6413 19.568 14.0303C19.3554 14.4193 18.8677 14.5623 18.4787 14.3498L15.8054 12.889C15.4164 12.6764 15.2733 12.1887 15.4859 11.7997Z" fill="#26D07C"/>
<path fill-rule="evenodd" clip-rule="evenodd" d="M19.5682 3.76725C19.7805 4.15636 19.6373 4.64398 19.2482 4.85637L16.5748 6.31557C16.1857 6.52796 15.6981 6.3847 15.4857 5.99559C15.2733 5.60648 15.4166 5.11887 15.8057 4.90648L18.479 3.44727C18.8681 3.23488 19.3558 3.37814 19.5682 3.76725Z" fill="#26D07C"/>
<path fill-rule="evenodd" clip-rule="evenodd" d="M13.1625 2.5C13.4123 2.64298 13.5665 2.90879 13.5665 3.19664V15.1578C13.5665 15.4622 13.3942 15.7404 13.1217 15.8762C12.8492 16.012 12.5233 15.9819 12.2803 15.7985C10.9556 14.7989 9.01827 13.9816 7.35658 13.4071C6.53605 13.1234 5.8021 12.9054 5.27377 12.7584C5.00986 12.685 4.79792 12.6295 4.65291 12.5926C4.60018 12.5792 4.55632 12.5683 4.52207 12.5598H0.802669C0.359367 12.5598 0 12.2004 0 11.7571V6.45239C0 6.00909 0.359367 5.64973 0.802669 5.64973H4.5648C6.09666 5.43963 8.01298 4.68147 9.60367 3.93491C10.3962 3.56296 11.0872 3.2039 11.5799 2.93792C11.8259 2.80506 12.0219 2.69576 12.1557 2.6201C12.2225 2.58228 12.2737 2.5529 12.3078 2.53321L12.346 2.51112L12.355 2.50584L12.357 2.50469M4.61814 11.7571C4.80191 10.9758 4.80203 10.9758 4.80217 10.9758L4.80739 10.9771L4.82048 10.9802L4.86877 10.9919C4.91055 11.0021 4.97121 11.0171 5.04886 11.0369C5.20414 11.0764 5.42755 11.1349 5.70394 11.2118C6.25622 11.3654 7.02263 11.5931 7.88114 11.8899C9.14099 12.3254 10.6431 12.9246 11.9611 13.6783V4.55383C11.497 4.79811 10.9234 5.08888 10.2857 5.38815C8.65681 6.15265 6.52487 7.01394 4.72162 7.24837C4.68731 7.25283 4.65274 7.25506 4.61814 7.25506H1.60534V10.9545H4.61814C4.68001 10.9545 4.74194 10.9617 4.80217 10.9758L4.61814 11.7571Z" fill="#26D07C"/>
<path fill-rule="evenodd" clip-rule="evenodd" d="M4.78997 5.58362C5.23328 5.58362 5.59264 5.94299 5.59264 6.38629V11.1707C5.59264 11.614 5.23328 11.9734 4.78997 11.9734C4.34667 11.9734 3.9873 11.614 3.9873 11.1707V6.38629C3.9873 5.94299 4.34667 5.58362 4.78997 5.58362Z" fill="#26D07C"/>
</svg>
