<svg width="23" height="22" viewBox="0 0 23 22" fill="none" xmlns="http://www.w3.org/2000/svg">
<rect opacity="0.7" x="0.464355" width="21.9013" height="21.9013" rx="10.9506" fill="#333333"/>
<path d="M8.50242 7.62804L6.35742 13.238H7.33956L7.85028 11.8316H10.1996L10.7103 13.238H11.6924L9.54742 7.62804H8.50242ZM8.12528 11.0773L9.01314 8.61804H9.04456L9.92456 11.0773H8.12528ZM12.2402 7.62804V13.238H13.1594V10.9516H14.613C14.9273 10.9516 15.1709 11.0145 15.3359 11.1559C15.493 11.2895 15.5873 11.5095 15.6187 11.8159L15.6894 12.5073C15.7209 12.8216 15.7994 13.0652 15.933 13.238H16.9309C16.7423 13.0338 16.6244 12.7588 16.593 12.413L16.4987 11.5095C16.4359 10.9595 16.1609 10.6373 15.6737 10.5273V10.5116C15.9723 10.433 16.2159 10.268 16.3887 10.0166C16.5459 9.78875 16.6244 9.52947 16.6244 9.23875C16.6244 8.70447 16.4437 8.29589 16.098 8.01304C15.768 7.75375 15.3123 7.62804 14.7387 7.62804H12.2402ZM13.1594 8.41375H14.613C14.9902 8.41375 15.2652 8.47661 15.438 8.61804C15.6109 8.75161 15.6973 8.97161 15.6973 9.27804C15.6973 9.56089 15.6109 9.78089 15.438 9.93804C15.2494 10.0873 14.9744 10.1659 14.613 10.1659H13.1594V8.41375Z" fill="white"/>
</svg>
