<svg width="24" height="24" viewBox="0 0 24 24" fill="none" xmlns="http://www.w3.org/2000/svg">
<path fill-rule="evenodd" clip-rule="evenodd" d="M17.8 5.25H6.2C5.67533 5.25 5.25 5.67533 5.25 6.2V14.8C5.25 15.3247 5.67533 15.75 6.2 15.75H17.8C18.3247 15.75 18.75 15.3247 18.75 14.8V6.2C18.75 5.67533 18.3247 5.25 17.8 5.25ZM6.2 3C4.43269 3 3 4.43269 3 6.2V14.8C3 16.5673 4.43269 18 6.2 18H17.8C19.5673 18 21 16.5673 21 14.8V6.2C21 4.43269 19.5673 3 17.8 3H6.2Z" fill="#26D07C"/>
<path fill-rule="evenodd" clip-rule="evenodd" d="M7 20.5C7 19.9477 7.44772 19.5 8 19.5H16C16.5523 19.5 17 19.9477 17 20.5C17 21.0523 16.5523 21.5 16 21.5H8C7.44772 21.5 7 21.0523 7 20.5Z" fill="#26D07C"/>
<path fill-rule="evenodd" clip-rule="evenodd" d="M16.1955 7.13137C16.6752 7.40499 16.8423 8.01571 16.5687 8.49545L14.3687 12.3526C14.2364 12.5846 14.0168 12.754 13.7588 12.8231C13.5009 12.8922 13.226 12.8553 12.9955 12.7205L10.4168 11.2135L8.75987 13.1501C8.40083 13.5698 7.76958 13.6189 7.34992 13.2599C6.93027 12.9008 6.88113 12.2696 7.24017 11.8499L9.44017 9.27848C9.7546 8.91096 10.287 8.82116 10.7046 9.0652L13.1321 10.4839L14.8314 7.50456C15.105 7.02482 15.7157 6.85774 16.1955 7.13137Z" fill="#26D07C"/>
</svg>
