<svg width="21" height="20" viewBox="0 0 21 20" fill="none" xmlns="http://www.w3.org/2000/svg">
<g clip-path="url(#clip0_1708_14586)">
<mask id="mask0_1708_14586" style="mask-type:alpha" maskUnits="userSpaceOnUse" x="3" y="2" width="15" height="16">
<path fill-rule="evenodd" clip-rule="evenodd" d="M4.64136 8.09715C4.64136 5.9127 6.41221 4.14185 8.59666 4.14185C10.7811 4.14185 12.552 5.9127 12.552 8.09715C12.552 10.2816 10.7811 12.0524 8.59666 12.0524C6.41221 12.0524 4.64136 10.2816 4.64136 8.09715ZM8.59666 2.66699C5.59767 2.66699 3.1665 5.09816 3.1665 8.09715C3.1665 11.0961 5.59767 13.5273 8.59666 13.5273C9.83027 13.5273 10.9678 13.116 11.8796 12.4229L16.5074 17.0508C16.6637 17.207 16.9169 17.207 17.0731 17.0508L17.5503 16.5736C17.7065 16.4174 17.7065 16.1641 17.5503 16.0079L12.9224 11.38C13.6155 10.4683 14.0268 9.33075 14.0268 8.09715C14.0268 5.09816 11.5957 2.66699 8.59666 2.66699Z" fill="#333333"/>
</mask>
<g mask="url(#mask0_1708_14586)">
<rect x="0.5" width="20" height="20" fill="#CCCCCC"/>
</g>
</g>
<defs>
<clipPath id="clip0_1708_14586">
<rect width="20" height="20" fill="white" transform="translate(0.5)"/>
</clipPath>
</defs>
</svg>
