<?xml version="1.0" encoding="utf-8"?>
<!-- Generator: Adobe Illustrator 26.2.1, SVG Export Plug-In . SVG Version: 6.00 Build 0)  -->
<svg version="1.1" id="圖層_1" xmlns="http://www.w3.org/2000/svg" xmlns:xlink="http://www.w3.org/1999/xlink" x="0px" y="0px"
	 viewBox="0 0 34 34" style="enable-background:new 0 0 34 34;" xml:space="preserve">
<style type="text/css">
	.st0{opacity:0.7;fill:#313333;enable-background:new    ;}
	.st1{fill-rule:evenodd;clip-rule:evenodd;fill:#FFFFFF;}
</style>
<circle class="st0" cx="17" cy="17" r="17"/>
<path class="st1" d="M13.7,19.2l-2.3,2.3v-1.2c0-0.4-0.4-0.7-0.8-0.6c-0.3,0-0.6,0.3-0.6,0.6v3c0,0.4,0.3,0.7,0.7,0.7c0,0,0,0,0,0h3
	c0.4,0,0.7-0.3,0.7-0.7c0,0,0,0,0,0c0-0.4-0.3-0.7-0.7-0.7h-1.3l2.3-2.3c0.3-0.3,0.3-0.7,0-1c0,0,0,0,0,0C14.4,19,14,19,13.7,19.2
	 M12.4,11.4h1.3c0.4,0,0.7-0.3,0.7-0.7l0,0c0-0.4-0.3-0.7-0.7-0.7c0,0,0,0,0,0h-3c-0.4,0-0.7,0.3-0.7,0.7v3c0,0.4,0.2,0.7,0.6,0.8
	c0.4,0,0.7-0.2,0.8-0.6c0-0.1,0-0.1,0-0.2v-1.3l2.3,2.3c0.3,0.3,0.7,0.2,1-0.1c0.2-0.3,0.2-0.6,0-0.9L12.4,11.4z M23.3,19.6
	c-0.4,0-0.7,0.3-0.7,0.7c0,0,0,0,0,0v1.3l-2.3-2.3c-0.2-0.3-0.7-0.4-1-0.1c0,0,0,0,0,0c0,0-0.1,0-0.1,0.1c-0.3,0.2-0.3,0.7-0.1,1
	c0,0,0,0,0,0l0.1,0.1l2.3,2.3h-1.2c-0.4,0-0.7,0.3-0.7,0.7v0c0,0.4,0.3,0.7,0.7,0.7c0,0,0,0,0,0h3c0.4,0,0.7-0.3,0.7-0.7
	c0,0,0,0,0,0v-3C24,19.9,23.7,19.6,23.3,19.6L23.3,19.6 M20.3,14.7l2.3-2.3v1.3c0,0.4,0.3,0.7,0.7,0.7l0,0c0.4,0,0.7-0.3,0.7-0.7
	c0,0,0,0,0,0v-3c0-0.4-0.3-0.7-0.7-0.7h-3c-0.4,0-0.7,0.3-0.7,0.7c0,0,0,0,0,0c0,0.4,0.3,0.7,0.7,0.7c0,0,0,0,0,0h1.2l-2.3,2.3
	c-0.3,0.3-0.3,0.7,0,1C19.6,15,20,15,20.3,14.7"/>
</svg>
