<svg xmlns="http://www.w3.org/2000/svg" xmlns:xlink="http://www.w3.org/1999/xlink" viewBox="0 0 375 78"><defs><clipPath id="clip-path"><rect width="375" height="78" fill="none"/></clipPath><mask id="mask" x="-257.12" y="0" width="710.05" height="602" maskUnits="userSpaceOnUse"><g id="b"><path id="a" d="M0,0H375V78H0Z" fill="#fff" fill-rule="evenodd"/></g></mask><mask id="mask-2" x="-103" y="0" width="710.05" height="602" maskUnits="userSpaceOnUse"><g id="b-2" data-name="b"><path id="a-2" data-name="a" d="M0,0H375V78H0Z" fill="#fff" fill-rule="evenodd"/></g></mask></defs><g clip-path="url(#clip-path)"><g opacity="0.7"><g mask="url(#mask)"><path d="M115.24,64.87s39,30.82,91.08,18.48,103.19-22.53,163,12.13,127.74,145.87,45.6,281.19S184.5,515.1,184.5,515.1s-13.72,2.26-50.94,2.64-54.35,24.19-54.35,24.19-28.61,39.92-54.29,56S-.3,577.69-.3,577.69A243.25,243.25,0,0,1,1,540.78c2.28-18.66-22.58-41.85-22.58-41.85s-32.37-13.45-44-15.5-138.87-48-177.74-170.36,16.34-218.29,16.34-218.29S-200.36,45.55-141,12.84,27.35,20.27,27.35,20.27s64.29,30.62,87.89,44.6" fill="#26d07c" fill-rule="evenodd" opacity="0.06" style="isolation:isolate"/></g><g mask="url(#mask-2)"><path d="M234.69,64.87s-38.95,30.82-91.08,18.48S40.42,60.82-19.42,95.48-147.16,241.35-65,376.67,165.43,515.1,165.43,515.1s13.71,2.26,50.94,2.64,54.35,24.19,54.35,24.19,28.61,39.93,54.29,56,25.21-20.21,25.21-20.21a243.25,243.25,0,0,0-1.34-36.91c-2.27-18.66,22.59-41.85,22.59-41.85s32.37-13.45,44-15.5,138.88-48,177.74-170.36S576.86,94.78,576.86,94.78s-26.57-49.23-85.93-81.94-168.35,7.43-168.35,7.43-64.29,30.62-87.89,44.6" fill="#26d07c" fill-rule="evenodd" opacity="0.06" style="isolation:isolate"/></g></g></g></svg>