<svg xmlns="http://www.w3.org/2000/svg" viewBox="0 0 150 150" width="150" height="150">
  <g>
    <path d="M65.63,76.2c-1.89,0-2.92,2-3.08,3.79a4.25,4.25,0,0,0,.78,3.19,2,2,0,0,0,1.55.64c2.45,0,2.85-3.22,2.91-3.86a4.28,4.28,0,0,0-.73-3.18A1.85,1.85,0,0,0,65.63,76.2Z" fill="#26d07c"/>
    <path d="M104.84,44.77c-7.69-3.65-13.2-1.65-18,.1l-1,.35h0a16.1,16.1,0,0,1-3.22.79s-3.38.72-8-1.61c-.19-.1-.48-.22-.76-.34h0l-.61-.27L71.65,43C36,27.37,33.22,60.56,33.22,60.56s-4.35,31.53,29.54,38h0c1.32.32,5.2,1.85,5.35,5.77.23,5.44.83,13,9.42-1.7.71-1.19,3-3.07,7.25-3.42h0c29.91-3.8,32.07-30.15,32.07-30.15v0C116.89,68.52,119,51.47,104.84,44.77ZM71.56,80c-.37,4.2-2.62,6.71-6,6.71A4.5,4.5,0,0,1,62,85.16l-.11,1.25H58.33L60,67.93h3.63l-.61,7a4.78,4.78,0,0,1,3.73-1.62,4.62,4.62,0,0,1,3.55,1.37C71.59,76.14,71.7,78.37,71.56,80Zm11-6.38-.24,2.73H79.43l-.88,10.07H74.92l.89-10.07H73.4l.24-2.73H76L76.18,72c.24-2.71,2-4.39,4.54-4.39a11.57,11.57,0,0,1,2.41.27l.17,0-.59,3.12a2,2,0,0,0-.45-.32,2.23,2.23,0,0,0-1.05-.23c-1,0-1.32.71-1.42,1.74,0,.33-.12,1.35-.12,1.35Zm7.4,11.66-.21.73a2.51,2.51,0,0,1-3.11,1.73l-1.71-.48a2.5,2.5,0,0,1-1.74-3.09l.22-.74a2.52,2.52,0,0,1,3.11-1.73l1.71.49A2.5,2.5,0,0,1,89.92,85.27Zm-.34-5.4-3.3-.82,1.36-9.67h5.53Zm2-23.13-.07,0c-1.18.65-13.82,7.66-25.51-2.23a3.13,3.13,0,0,1-1-1.71A3.24,3.24,0,0,1,65.59,50a3.45,3.45,0,0,1,4.58-.36C79,55.72,88.31,51.09,88.41,51a3.25,3.25,0,1,1,3.12,5.7Z" fill="#26d07c"/>
  </g>
</svg>
