<svg xmlns="http://www.w3.org/2000/svg" viewBox="0 0 24 24">
  <g>
    <path d="M0,11.66a11.86,11.86,0,0,0,12,11,11.86,11.86,0,0,0,12-11c0,.22,0,.45,0,.68A11.83,11.83,0,0,1,12,24,11.83,11.83,0,0,1,0,12.34C0,12.11,0,11.88,0,11.66Z" fill="#ff9c00" fill-rule="evenodd"/>
    <path d="M12,23.31A11.82,11.82,0,0,0,24,11.66,11.83,11.83,0,0,0,12,0,11.83,11.83,0,0,0,0,11.66,11.82,11.82,0,0,0,12,23.31Z" fill="#ffd81e"/>
    <path d="M12,21.26a9.74,9.74,0,0,0,9.88-9.6A9.74,9.74,0,0,0,12,2.06a9.74,9.74,0,0,0-9.88,9.6A9.74,9.74,0,0,0,12,21.26Z" fill="#ffc200"/>
    <path d="M2.12,12v-.34A9.74,9.74,0,0,1,12,2.06a9.74,9.74,0,0,1,9.88,9.6V12A9.77,9.77,0,0,0,12,2.74,9.77,9.77,0,0,0,2.12,12Z" fill="#ff9c00" fill-rule="evenodd"/>
    <path d="M14.17,14.49a2.08,2.08,0,0,1-.74,1,1.85,1.85,0,0,1-1.13.34,1.93,1.93,0,0,1-1.06-.3,1.58,1.58,0,0,1-.68-.84,4.34,4.34,0,0,1-.2-1.5c0-.14,0-.29,0-.44l.09-1.95h1.7a2.16,2.16,0,0,1,1.69.63,2.45,2.45,0,0,1,.57,1.69A4,4,0,0,1,14.17,14.49Zm2-3.59A3,3,0,0,0,14.8,9.64a5.13,5.13,0,0,0-2.08-.37l-2.18,0,.16-2.76H8.51L8,17.23h2.13L10.2,16a4,4,0,0,0,.33.47,2.31,2.31,0,0,0,.39.36,2.1,2.1,0,0,0,.52.33,3.1,3.1,0,0,0,.65.21,3.57,3.57,0,0,0,.76.07,4.07,4.07,0,0,0,1.57-.3,3,3,0,0,0,1.23-.94,4.32,4.32,0,0,0,.76-1.46A5.63,5.63,0,0,0,16.67,13,4.13,4.13,0,0,0,16.16,10.9Z" fill="#fff"/>
  </g>
</svg>
