<svg id="圖層_1" data-name="圖層 1" xmlns="http://www.w3.org/2000/svg" xmlns:xlink="http://www.w3.org/1999/xlink" viewBox="0 0 750 711"><defs><clipPath id="clip-path"><rect x="-1586.79" y="-895" width="1436" height="708" fill="none"/></clipPath><mask id="mask" x="-1662.25" y="-875.89" width="1788.99" height="1319" maskUnits="userSpaceOnUse"/><linearGradient id="未命名漸層_3" x1="397.17" y1="-398.11" x2="397.17" y2="-398" gradientTransform="translate(-711296.95 453900.57) scale(1788.99 1141)" gradientUnits="userSpaceOnUse"><stop offset="0" stop-color="#26d07c"/><stop offset="1" stop-color="#26d07c" stop-opacity="0"/></linearGradient><mask id="mask-2" x="-1588.14" y="-895.57" width="1779.79" height="966.88" maskUnits="userSpaceOnUse"/><linearGradient id="未命名漸層_8" x1="396.13" y1="-392.6" x2="397.13" y2="-392.6" gradientTransform="matrix(432.2, 748.6, -379.54, 219.13, -320647.64, -211301.21)" gradientUnits="userSpaceOnUse"><stop offset="0" stop-color="#fff" stop-opacity="0"/><stop offset="1" stop-color="#fff"/></linearGradient><clipPath id="clip-path-2"><rect x="1436" y="-895" width="1436" height="708" fill="none"/></clipPath><mask id="mask-3" x="662.65" y="-875.89" width="2212" height="1500" maskUnits="userSpaceOnUse"/><linearGradient id="未命名漸層_4" x1="398.86" y1="-397.96" x2="398.92" y2="-397.87" gradientTransform="translate(-836181.94 530576.43) scale(2100.86 1333.68)" xlink:href="#未命名漸層_3"/><clipPath id="clip-path-3"><rect y="-895" width="1436" height="708" transform="translate(1436 -1082) rotate(-180)" fill="none"/></clipPath><mask id="mask-4" x="-277.54" y="-875.89" width="2486.89" height="1500" maskUnits="userSpaceOnUse"/><linearGradient id="未命名漸層_3-2" x1="394.67" y1="-398.11" x2="394.68" y2="-398" gradientTransform="matrix(-1788.99, 0, 0, 1141, 706687.37, 453900.57)" xlink:href="#未命名漸層_3"/><linearGradient id="未命名漸層_4-2" x1="395.3" y1="-397.96" x2="395.36" y2="-397.87" gradientTransform="matrix(-2100.86, 0, 0, 1333.68, 831572.36, 530576.43)" xlink:href="#未命名漸層_3"/><mask id="mask-5" x="-60.24" y="-875.89" width="1497.59" height="1364.59" maskUnits="userSpaceOnUse"/><linearGradient id="未命名漸層_5" x1="386.67" y1="-397.97" x2="386.69" y2="-398.09" gradientTransform="matrix(-599.74, 0, 0, 939.77, 232551.77, 373946.58)" gradientUnits="userSpaceOnUse"><stop offset="0" stop-color="#fff" stop-opacity="0.4"/><stop offset="1" stop-color="#fff" stop-opacity="0"/></linearGradient><linearGradient id="未命名漸層_6" x1="386.67" y1="-397.97" x2="386.69" y2="-398.09" gradientTransform="matrix(-599.74, 0, 0, 939.77, 232323.74, 374059.58)" xlink:href="#未命名漸層_5"/><linearGradient id="未命名漸層_7" x1="386.67" y1="-397.97" x2="386.69" y2="-398.09" gradientTransform="matrix(-599.74, 0, 0, 939.77, 232142.74, 374059.58)" xlink:href="#未命名漸層_5"/><mask id="mask-6" x="-342.44" y="-895.57" width="1779.79" height="966.88" maskUnits="userSpaceOnUse"/><linearGradient id="未命名漸層_8-2" x1="393.55" y1="-383.79" x2="394.55" y2="-383.79" gradientTransform="matrix(-432.2, 748.6, 379.54, 219.13, 316038.06, -211301.21)" xlink:href="#未命名漸層_8"/><clipPath id="clip-path-4"><rect width="375" height="711" fill="none"/></clipPath><linearGradient id="未命名漸層_11" x1="398.26" y1="-394.46" x2="398.26" y2="-395.46" gradientTransform="matrix(-375, 0, 0, 711, 149534.51, 281172.78)" gradientUnits="userSpaceOnUse"><stop offset="0" stop-color="#005c67"/><stop offset="0.42" stop-color="#26d09a"/><stop offset="1" stop-color="#26d07c" stop-opacity="0"/></linearGradient><linearGradient id="未命名漸層_10" x1="398.23" y1="-394.48" x2="398.27" y2="-395.18" gradientTransform="matrix(-375, 0, 0, 711, 149534.51, 281172.78)" gradientUnits="userSpaceOnUse"><stop offset="0" stop-color="#005271"/><stop offset="0.6" stop-color="#26d09a"/><stop offset="1" stop-color="#26d07c" stop-opacity="0"/></linearGradient><clipPath id="clip-path-5"><rect x="375" width="375" height="711" transform="translate(1125 711) rotate(-180)" fill="none"/></clipPath><linearGradient id="未命名漸層_11-2" x1="397.26" y1="-394.46" x2="397.26" y2="-395.46" gradientTransform="translate(-148409.51 281172.78) scale(375 711)" xlink:href="#未命名漸層_11"/><linearGradient id="未命名漸層_10-2" x1="397.23" y1="-394.48" x2="397.27" y2="-395.18" gradientTransform="translate(-148409.51 281172.78) scale(375 711)" xlink:href="#未命名漸層_10"/></defs><g clip-path="url(#clip-path)"><g mask="url(#mask)"><path d="M-813.09-634.94s111.94,43.47,233.74-1.7,242.11-85.74,407.45-43.44S218.66-451.15,87.31-156.53-407.26,204.89-407.26,204.89s-32.57,10-124,26S-652.3,299.8-652.3,299.8-701.8,388.52-756.59,430s-72.61-28.63-72.61-28.63-11.86-34.83-16-71.74-77.44-71.44-77.44-71.44-86.68-12.66-116.32-11.85-366.79-35.68-526.39-255.67S-1639.3-437-1639.3-437s39.62-105.83,168.56-193.24,418.09-54.69,418.09-54.69,174.18,32.69,239.56,50" fill-rule="evenodd" opacity="0.1" fill="url(#未命名漸層_3)" style="isolation:isolate"/></g><g mask="url(#mask-2)"><g opacity="0.14"><path d="M-619.18-676.07l431.5,747.38,4.33-2.5-431.5-747.38Zm8-5,431.5,747.38,4.33-2.5-431.5-747.38Zm8-5,431.5,747.38,4.33-2.5-431.5-747.38Zm8-4,431.5,747.38,4.33-2.5-431.5-747.38Zm8-5,431.5,747.38,4.33-2.5-431.5-747.38Zm8-5,431.5,747.38,4.33-2.5-431.5-747.38Zm8-4,431.5,747.38,4.33-2.5-431.5-747.38Zm8-5,431.5,747.38,4.33-2.5-431.5-747.38Zm8-5,431.5,747.38,4.33-2.5-431.5-747.38Zm8-4,431.5,747.38,4.33-2.5-431.5-747.38Zm8-5,431.5,747.38,4.33-2.5-431.5-747.38Zm8-4L-99.68,20.31l4.33-2.5-431.5-747.38Zm8-5L-91.68,15.31l4.33-2.5-431.5-747.38Zm8-5L-83.68,10.31l4.33-2.5-431.5-747.38Zm8-4L-75.68,6.31l4.33-2.5-431.5-747.38Zm8-4L-67.68,2.31l4.33-2.5-431.5-747.38Zm8-5L-59.68-2.69l4.33-2.5-431.5-747.38Zm8-5L-51.68-7.69l4.33-2.5-431.5-747.38Zm8-4L-43.68-11.69l4.33-2.5-431.5-747.38Zm8-5L-35.68-16.69l4.33-2.5-431.5-747.38Zm8-5L-27.68-21.69l4.33-2.5-431.5-747.38Zm8-4L-19.68-25.69l4.33-2.5-431.5-747.38Zm7-5L-12.68-30.69l4.33-2.5-431.5-747.38Zm8-5L-4.68-35.69l4.33-2.5-431.5-747.38Zm9-4L4.32-39.69l4.33-2.5-431.5-747.38Zm7-5L11.32-44.69l4.33-2.5-431.5-747.38Zm8-4L19.32-48.69l4.33-2.5-431.5-747.38Zm9-5L28.32-53.69l4.33-2.5-431.5-747.38Zm7-5L35.32-58.69l4.33-2.5-431.5-747.38Zm8-4L43.32-62.69l4.33-2.5-431.5-747.38Zm8-4L51.32-66.69l4.33-2.5-431.5-747.38Zm8-5L59.32-71.69l4.33-2.5-431.5-747.38Zm8-5L67.32-76.69l4.33-2.5-431.5-747.38Zm8-4L75.32-80.69l4.33-2.5-431.5-747.38Zm8-5L83.32-85.69l4.33-2.5-431.5-747.38Zm8-5L91.32-90.69l4.33-2.5-431.5-747.38Zm8-4L99.32-94.69l4.33-2.5-431.5-747.38Zm8-5L107.32-99.69l4.33-2.5-431.5-747.38Zm8-5,431.5,747.38,4.33-2.5-431.5-747.38Zm8-4,431.5,747.38,4.33-2.5-431.5-747.38Zm8-5,431.5,747.38,4.33-2.5-431.5-747.38Zm8-4,431.5,747.38,4.33-2.5-431.5-747.38Zm8-5,431.5,747.38,4.33-2.5-431.5-747.38Zm8-5,431.5,747.38,4.33-2.5-431.5-747.38Zm8-4,431.5,747.38,4.33-2.5-431.5-747.38Zm8-4,431.5,747.38,4.33-2.5-431.5-747.38Zm8-5,431.5,747.38,4.33-2.5-431.5-747.38Zm8-5,431.5,747.38,4.33-2.5-431.5-747.38Z" fill-rule="evenodd" fill="url(#未命名漸層_8)"/></g></g></g><g clip-path="url(#clip-path-2)"><g mask="url(#mask-3)"><path d="M1950.93-638.17c145.2-49.13,288.42-92.91,480.16-37.83S2877.33-394.25,2708-52.25s-598.82,408.74-598.82,408.74-38.71,10.67-146.73,26.51-145.59,77.09-145.59,77.09-62.66,102.66-129.07,149.62-83.68-36-83.68-36-12.12-41.32-15.07-84.83-87.13-86.48-87.13-86.48-101-17.69-135.83-17.7S937.72,330.85,761.92,67.11s-64.59-505-64.59-505,52-123.1,207.73-221.65,353-21,353-21,243.91-27,418.66,36.82c0,0,129.06,54.72,274.26,5.58Z" fill-rule="evenodd" opacity="0.2" fill="url(#未命名漸層_4)" style="isolation:isolate"/></g></g><g clip-path="url(#clip-path-3)"><g mask="url(#mask-4)"><path d="M662.3-634.94c65.37-17.29,239.55-50,239.55-50S1191-717.66,1320-630.23,1488.51-437,1488.51-437s85.63,207.67-73.94,427.65S917.81,247.12,888.18,246.33s-116.32,11.85-116.32,11.85-73.29,34.53-77.44,71.44-16,71.74-16,71.74S660.59,471.46,605.8,430,501.5,299.8,501.5,299.8s-29.71-52.93-121.08-68.93-123.95-26-123.95-26S-106.75,138.07-238.1-156.53s93.84-481.24,259.21-523.55,285.65-1.73,407.45,43.44,233.74,1.7,233.74,1.7" fill-rule="evenodd" opacity="0.1" fill="url(#未命名漸層_3-2)" style="isolation:isolate"/><path d="M921.07-638.17c145.2,49.14,274.26-5.58,274.26-5.58C1370.08-707.57,1614-680.57,1614-680.57s197.22-77.56,353,21,207.73,221.65,207.73,221.65,111.19,241.3-64.59,505S1540.7,384.66,1505.91,384.69s-135.83,17.7-135.83,17.7-84.17,43-87.13,86.48-15.07,84.83-15.07,84.83-17.26,83-83.68,36-129.07-149.62-129.07-149.62S1017.54,398.84,909.54,383s-146.73-26.51-146.73-26.51S333.31,289.75,164-52.25,249.14-620.9,440.91-676s335-11.3,480.16,37.83Z" fill-rule="evenodd" opacity="0.2" fill="url(#未命名漸層_4-2)" style="isolation:isolate"/></g><g mask="url(#mask-5)"><path d="M862.76-564.08l85.74,49.5-514,890.27-85.74-49.5Z" fill-rule="evenodd" opacity="0.3" fill="url(#未命名漸層_5)" style="isolation:isolate"/><path d="M634.76-451.08l85.74,49.5-514,890.27-85.74-49.5Z" fill-rule="evenodd" opacity="0.4" fill="url(#未命名漸層_6)" style="isolation:isolate"/><path d="M453.76-451.08l85.74,49.5L25.5,488.69l-85.74-49.5Z" fill-rule="evenodd" opacity="0.5" fill="url(#未命名漸層_7)" style="isolation:isolate"/></g><g mask="url(#mask-6)"><g opacity="0.14"><path d="M464.06-678.57,32.56,68.81l4.33,2.5,431.5-747.38Zm-8-5L24.56,63.81l4.33,2.5,431.5-747.38Zm-8-5L16.56,58.81l4.33,2.5,431.5-747.38Zm-8-4L8.56,54.81l4.33,2.5,431.5-747.38Zm-8-5L.56,49.81l4.33,2.5,431.5-747.38Zm-8-5L-7.44,44.81l4.33,2.5,431.5-747.38Zm-8-4L-15.44,40.81l4.33,2.5,431.5-747.38Zm-8-5L-23.44,35.81l4.33,2.5,431.5-747.38Zm-8-5L-31.44,30.81l4.33,2.5,431.5-747.38Zm-8-4L-39.44,26.81l4.33,2.5,431.5-747.38Zm-8-5L-47.44,21.81l4.33,2.5,431.5-747.38Zm-8-4L-55.44,17.81l4.33,2.5,431.5-747.38Zm-8-5L-63.44,12.81l4.33,2.5,431.5-747.38Zm-8-5L-71.44,7.81l4.33,2.5,431.5-747.38Zm-8-4L-79.44,3.81l4.33,2.5,431.5-747.38Zm-8-4L-87.44-.19l4.33,2.5,431.5-747.38Zm-8-5L-95.44-5.19l4.33,2.5,431.5-747.38Zm-8-5L-103.44-10.19l4.33,2.5,431.5-747.38Zm-8-4L-111.44-14.19l4.33,2.5,431.5-747.38Zm-8-5L-119.44-19.19l4.33,2.5,431.5-747.38Zm-8-5L-127.44-24.19l4.33,2.5,431.5-747.38Zm-8-4L-135.44-28.19l4.33,2.5,431.5-747.38Zm-7-5L-142.44-33.19l4.33,2.5,431.5-747.38Zm-8-5L-150.44-38.19l4.33,2.5,431.5-747.38Zm-9-4L-159.44-42.19l4.33,2.5,431.5-747.38Zm-7-5L-166.44-47.19l4.33,2.5,431.5-747.38Zm-8-4L-174.44-51.19l4.33,2.5,431.5-747.38Zm-9-5L-183.44-56.19l4.33,2.5,431.5-747.38Zm-7-5L-190.44-61.19l4.33,2.5,431.5-747.38Zm-8-4L-198.44-65.19l4.33,2.5,431.5-747.38Zm-8-4L-206.44-69.19l4.33,2.5,431.5-747.38Zm-8-5L-214.44-74.19l4.33,2.5,431.5-747.38Zm-8-5L-222.44-79.19l4.33,2.5,431.5-747.38Zm-8-4L-230.44-83.19l4.33,2.5,431.5-747.38Zm-8-5L-238.44-88.19l4.33,2.5,431.5-747.38Zm-8-5L-246.44-93.19l4.33,2.5,431.5-747.38Zm-8-4L-254.44-97.19l4.33,2.5,431.5-747.38Zm-8-5-431.5,747.38,4.33,2.5,431.5-747.38Zm-8-5-431.5,747.38,4.33,2.5,431.5-747.38Zm-8-4-431.5,747.38,4.33,2.5,431.5-747.38Zm-8-5-431.5,747.38,4.33,2.5,431.5-747.38Zm-8-4-431.5,747.38,4.33,2.5,431.5-747.38Zm-8-5-431.5,747.38,4.33,2.5,431.5-747.38Zm-8-5-431.5,747.38,4.33,2.5,431.5-747.38Zm-8-4-431.5,747.38,4.33,2.5,431.5-747.38Zm-8-4-431.5,747.38,4.33,2.5,431.5-747.38Zm-8-5-431.5,747.38,4.33,2.5,431.5-747.38Zm-8-5-431.5,747.38,4.33,2.5L93.39-893.07Z" fill-rule="evenodd" fill="url(#未命名漸層_8-2)"/></g></g></g><g clip-path="url(#clip-path-4)"><g id="首頁_1021" data-name="首頁 1021"><g id="A.1.2-首頁-mobile"><g id="footer"><g id="footer_bg" data-name="footer bg"><g id="最底下顏色與曲線-copy"><path id="豆子形狀" d="M171.71,111.48s-35.55,16.84-73.57-2S22.53,73.75-29.81,89.83s-124.55,89.8-85.28,208.85S38.06,446.54,38.06,446.54s10.18,4.19,38.84,11.12S114.53,486,114.53,486s15,35.9,31.91,52.86,23.06-11.1,23.06-11.1A193,193,0,0,0,175.05,499c1.56-14.8,24.88-28.27,24.88-28.27s27.37-4.61,36.69-4.12,115.72-12.32,167.5-99.79S430.4,195.51,430.4,195.51,418.67,152.79,378.69,117,247.47,92.72,247.47,92.72s-55.06,12.17-75.76,18.76" fill="#26d07c" fill-rule="evenodd" opacity="0.13" style="isolation:isolate"/><path id="豆子形狀-2" data-name="豆子形狀" d="M245.58,118.45C206.71,109,150.46,80.57,71.78,93.84S-97.53,161.33-82.46,287.37,135.66,561.74,135.66,561.74s12.94,6.13,49.68,17.08,46.94,39.37,46.94,39.37,17,47.65,37.86,70.82,30.7-12.85,30.7-12.85A251,251,0,0,0,310,639.24c3-19.12,34.24-35,34.24-35s35.86-4.12,47.94-2.85,151.12-8.12,224.33-118.21,45.79-220.75,45.79-220.75S650,206.13,600.49,156.9,399.17,90.66,399.17,90.66s-40.76-4.08-77.38,16.55C321.79,107.21,284.44,127.86,245.58,118.45Z" fill="#26d07c" fill-rule="evenodd" opacity="0.26" style="isolation:isolate"/><rect id="Rectangle" width="375" height="711" fill="url(#未命名漸層_11)"/><rect id="Rectangle-2" data-name="Rectangle" width="375" height="711" fill="url(#未命名漸層_10)"/></g></g></g></g></g></g><g clip-path="url(#clip-path-5)"><g id="首頁_1021-2" data-name="首頁 1021"><g id="A.1.2-首頁-mobile-2" data-name="A.1.2-首頁-mobile"><g id="footer-2" data-name="footer"><g id="footer_bg-2" data-name="footer bg"><g id="最底下顏色與曲線-copy-2" data-name="最底下顏色與曲線-copy"><path id="豆子形狀-3" data-name="豆子形狀" d="M578.29,111.48s35.55,16.84,73.57-2,75.61-35.76,127.95-19.68,124.55,89.8,85.28,208.85S711.94,446.54,711.94,446.54s-10.18,4.19-38.84,11.12S635.47,486,635.47,486s-15,35.9-31.91,52.86-23.06-11.1-23.06-11.1A193,193,0,0,1,575,499c-1.56-14.8-24.88-28.27-24.88-28.27s-27.37-4.61-36.69-4.12-115.72-12.32-167.5-99.79S319.6,195.51,319.6,195.51s11.73-42.72,51.71-78.53S502.53,92.72,502.53,92.72s55.06,12.17,75.76,18.76" fill="#26d07c" fill-rule="evenodd" opacity="0.13" style="isolation:isolate"/><path id="豆子形狀-4" data-name="豆子形狀" d="M504.42,118.45c38.87-9.42,95.12-37.88,173.8-24.61s169.31,67.49,154.24,193.53S614.34,561.74,614.34,561.74s-12.94,6.13-49.68,17.08-46.94,39.37-46.94,39.37-17,47.65-37.86,70.82-30.7-12.85-30.7-12.85A251,251,0,0,1,440,639.24c-3-19.12-34.24-35-34.24-35s-35.86-4.12-47.94-2.85S206.71,593.25,133.5,483.16,87.71,262.41,87.71,262.41,100,206.13,149.51,156.9,350.83,90.66,350.83,90.66s40.76-4.08,77.38,16.55C428.21,107.21,465.56,127.86,504.42,118.45Z" fill="#26d07c" fill-rule="evenodd" opacity="0.26" style="isolation:isolate"/><rect id="Rectangle-3" data-name="Rectangle" x="375" width="375" height="711" fill="url(#未命名漸層_11-2)"/><rect id="Rectangle-4" data-name="Rectangle" x="375" width="375" height="711" fill="url(#未命名漸層_10-2)"/></g></g></g></g></g></g></svg>