<svg id="圖層_1" data-name="圖層 1" xmlns="http://www.w3.org/2000/svg" xmlns:xlink="http://www.w3.org/1999/xlink" viewBox="0 0 375 710"><defs><clipPath id="clip-path"><rect width="375" height="710" fill="none"/></clipPath><clipPath id="clip-path-2"><path d="M228.69,113.4c-39-12.23-81.36-28.87-141.8-22.22C60.77,94.05,40.45,99.26.5,117.51c0,26.08-.42,91.06-.42,91.06L0,710l374.49.06.09-583.18s-24,4.53-42.36,8.42C332.23,135.3,267.66,125.63,228.69,113.4Z" fill="none"/></clipPath><linearGradient id="未命名漸層_3" x1="-114.34" y1="498.19" x2="-115.35" y2="497.69" gradientTransform="matrix(0.03, -375, -2, 0, 1305, -42605.19)" gradientUnits="userSpaceOnUse"><stop offset="0" stop-color="#fff" stop-opacity="0"/><stop offset="1" stop-color="#fff"/></linearGradient><linearGradient id="未命名漸層_4" x1="-114.34" y1="498.2" x2="-115.35" y2="497.69" gradientTransform="matrix(0.03, -375, -2, 0, 1308.37, -42607.34)" xlink:href="#未命名漸層_3"/><linearGradient id="未命名漸層_5" x1="-114.34" y1="498.2" x2="-115.35" y2="497.7" gradientTransform="matrix(0.03, -375, -2, 0, 1311.84, -42609.34)" xlink:href="#未命名漸層_3"/><linearGradient id="未命名漸層_6" x1="-114.34" y1="498.2" x2="-115.35" y2="497.7" gradientTransform="matrix(0.03, -375, -2, 0, 1315.39, -42611.18)" xlink:href="#未命名漸層_3"/><linearGradient id="未命名漸層_7" x1="-114.34" y1="498.21" x2="-115.35" y2="497.7" gradientTransform="matrix(0.03, -375, -2, 0, 1318.77, -42613.33)" xlink:href="#未命名漸層_3"/><linearGradient id="未命名漸層_8" x1="-114.34" y1="498.21" x2="-115.35" y2="497.71" gradientTransform="matrix(0.03, -375, -2, 0, 1322.23, -42615.33)" xlink:href="#未命名漸層_3"/><linearGradient id="未命名漸層_9" x1="-114.34" y1="498.21" x2="-115.35" y2="497.71" gradientTransform="matrix(0.03, -375, -2, 0, 1325.79, -42617.17)" xlink:href="#未命名漸層_3"/><linearGradient id="未命名漸層_10" x1="-114.34" y1="498.21" x2="-115.35" y2="497.71" gradientTransform="matrix(0.03, -375, -2, 0, 1329.16, -42619.32)" xlink:href="#未命名漸層_3"/><linearGradient id="未命名漸層_11" x1="-114.34" y1="498.22" x2="-115.35" y2="497.72" gradientTransform="matrix(0.03, -375, -2, 0, 1332.63, -42621.32)" xlink:href="#未命名漸層_3"/><linearGradient id="未命名漸層_12" x1="-114.34" y1="498.22" x2="-115.35" y2="497.72" gradientTransform="matrix(0.03, -375, -2, 0, 1336.18, -42623.16)" xlink:href="#未命名漸層_3"/><linearGradient id="未命名漸層_13" x1="-114.34" y1="498.22" x2="-115.35" y2="497.72" gradientTransform="matrix(0.03, -375, -2, 0, 1339.56, -42625.31)" xlink:href="#未命名漸層_3"/><linearGradient id="未命名漸層_14" x1="-114.34" y1="498.23" x2="-115.35" y2="497.73" gradientTransform="matrix(0.03, -375, -2, 0, 1343.02, -42627.31)" xlink:href="#未命名漸層_3"/><linearGradient id="未命名漸層_15" x1="-114.34" y1="498.23" x2="-115.35" y2="497.73" gradientTransform="matrix(0.03, -375, -2, 0, 1346.58, -42629.15)" xlink:href="#未命名漸層_3"/><linearGradient id="未命名漸層_16" x1="-114.34" y1="498.23" x2="-115.35" y2="497.73" gradientTransform="matrix(0.03, -375, -2, 0, 1349.95, -42631.3)" xlink:href="#未命名漸層_3"/><linearGradient id="未命名漸層_17" x1="-114.34" y1="498.24" x2="-115.35" y2="497.73" gradientTransform="matrix(0.03, -375, -2, 0, 1353.42, -42633.3)" xlink:href="#未命名漸層_3"/><linearGradient id="未命名漸層_18" x1="-114.34" y1="498.24" x2="-115.35" y2="497.74" gradientTransform="matrix(0.03, -375, -2, 0, 1356.97, -42635.14)" xlink:href="#未命名漸層_3"/><linearGradient id="未命名漸層_19" x1="-114.34" y1="498.24" x2="-115.35" y2="497.74" gradientTransform="matrix(0.03, -375, -2, 0, 1360.35, -42637.3)" xlink:href="#未命名漸層_3"/><linearGradient id="未命名漸層_20" x1="-114.34" y1="498.25" x2="-115.35" y2="497.74" gradientTransform="matrix(0.03, -375, -2, 0, 1363.81, -42639.29)" xlink:href="#未命名漸層_3"/><linearGradient id="未命名漸層_21" x1="-114.34" y1="498.25" x2="-115.35" y2="497.75" gradientTransform="matrix(0.03, -375, -2, 0, 1367.37, -42641.13)" xlink:href="#未命名漸層_3"/><linearGradient id="未命名漸層_22" x1="-114.34" y1="498.25" x2="-115.35" y2="497.75" gradientTransform="matrix(0.03, -375, -2, 0, 1370.74, -42643.29)" xlink:href="#未命名漸層_3"/><linearGradient id="未命名漸層_23" x1="-114.34" y1="498.25" x2="-115.35" y2="497.75" gradientTransform="matrix(0.03, -375, -2, 0, 1374.21, -42645.28)" xlink:href="#未命名漸層_3"/><linearGradient id="未命名漸層_24" x1="-114.34" y1="498.26" x2="-115.35" y2="497.76" gradientTransform="matrix(0.03, -375, -2, 0, 1377.76, -42647.13)" xlink:href="#未命名漸層_3"/><linearGradient id="未命名漸層_25" x1="-114.34" y1="498.26" x2="-115.35" y2="497.76" gradientTransform="matrix(0.03, -375, -2, 0, 1381.14, -42649.28)" xlink:href="#未命名漸層_3"/><linearGradient id="未命名漸層_26" x1="-114.34" y1="498.26" x2="-115.35" y2="497.76" gradientTransform="matrix(0.03, -375, -2, 0, 1384.6, -42651.27)" xlink:href="#未命名漸層_3"/><linearGradient id="未命名漸層_27" x1="-114.34" y1="498.27" x2="-115.35" y2="497.76" gradientTransform="matrix(0.03, -375, -2, 0, 1388.16, -42653.12)" xlink:href="#未命名漸層_3"/><linearGradient id="未命名漸層_28" x1="-114.34" y1="498.27" x2="-115.35" y2="497.77" gradientTransform="matrix(0.03, -375, -2, 0, 1391.53, -42655.27)" xlink:href="#未命名漸層_3"/><linearGradient id="未命名漸層_29" x1="-114.34" y1="498.27" x2="-115.35" y2="497.77" gradientTransform="matrix(0.03, -375, -2, 0, 1395, -42657.27)" xlink:href="#未命名漸層_3"/><linearGradient id="未命名漸層_30" x1="-114.34" y1="498.28" x2="-115.35" y2="497.77" gradientTransform="matrix(0.03, -375, -2, 0, 1398.55, -42659.11)" xlink:href="#未命名漸層_3"/><linearGradient id="未命名漸層_31" x1="-114.34" y1="498.28" x2="-115.35" y2="497.78" gradientTransform="matrix(0.03, -375, -2, 0, 1401.93, -42661.26)" xlink:href="#未命名漸層_3"/><linearGradient id="未命名漸層_32" x1="-114.34" y1="498.28" x2="-115.35" y2="497.78" gradientTransform="matrix(0.03, -375, -2, 0, 1405.4, -42663.26)" xlink:href="#未命名漸層_3"/><linearGradient id="未命名漸層_33" x1="-114.34" y1="498.28" x2="-115.35" y2="497.78" gradientTransform="matrix(0.03, -375, -2, 0, 1408.95, -42665.1)" xlink:href="#未命名漸層_3"/><linearGradient id="未命名漸層_34" x1="-114.34" y1="498.29" x2="-115.35" y2="497.79" gradientTransform="matrix(0.03, -375, -2, 0, 1412.33, -42667.25)" xlink:href="#未命名漸層_3"/><linearGradient id="未命名漸層_35" x1="-114.34" y1="498.29" x2="-115.35" y2="497.79" gradientTransform="matrix(0.03, -375, -2, 0, 1415.79, -42669.25)" xlink:href="#未命名漸層_3"/><linearGradient id="未命名漸層_36" x1="-114.34" y1="498.29" x2="-115.35" y2="497.79" gradientTransform="matrix(0.03, -375, -2, 0, 1419.35, -42671.09)" xlink:href="#未命名漸層_3"/><linearGradient id="未命名漸層_37" x1="-114.34" y1="498.3" x2="-115.35" y2="497.79" gradientTransform="matrix(0.03, -375, -2, 0, 1422.72, -42673.24)" xlink:href="#未命名漸層_3"/><linearGradient id="未命名漸層_38" x1="-114.34" y1="498.3" x2="-115.35" y2="497.8" gradientTransform="matrix(0.03, -375, -2, 0, 1426.19, -42675.24)" xlink:href="#未命名漸層_3"/><linearGradient id="未命名漸層_39" x1="-114.34" y1="498.3" x2="-115.35" y2="497.8" gradientTransform="matrix(0.03, -375, -2, 0, 1429.74, -42677.08)" xlink:href="#未命名漸層_3"/><linearGradient id="未命名漸層_40" x1="-114.34" y1="498.31" x2="-115.35" y2="497.8" gradientTransform="matrix(0.03, -375, -2, 0, 1433.12, -42679.23)" xlink:href="#未命名漸層_3"/><linearGradient id="未命名漸層_41" x1="-114.34" y1="498.31" x2="-115.35" y2="497.81" gradientTransform="matrix(0.03, -375, -2, 0, 1436.58, -42681.23)" xlink:href="#未命名漸層_3"/><linearGradient id="未命名漸層_42" x1="-114.34" y1="498.31" x2="-115.35" y2="497.81" gradientTransform="matrix(0.03, -375, -2, 0, 1440.14, -42683.07)" xlink:href="#未命名漸層_3"/><linearGradient id="未命名漸層_43" x1="-114.34" y1="498.31" x2="-115.35" y2="497.81" gradientTransform="matrix(0.03, -375, -2, 0, 1443.51, -42685.22)" xlink:href="#未命名漸層_3"/><linearGradient id="未命名漸層_44" x1="-114.34" y1="498.32" x2="-115.35" y2="497.82" gradientTransform="matrix(0.03, -375, -2, 0, 1446.98, -42687.22)" xlink:href="#未命名漸層_3"/><linearGradient id="未命名漸層_45" x1="-114.34" y1="498.32" x2="-115.35" y2="497.82" gradientTransform="matrix(0.03, -375, -2, 0, 1450.53, -42689.06)" xlink:href="#未命名漸層_3"/><linearGradient id="未命名漸層_46" x1="-114.34" y1="498.32" x2="-115.35" y2="497.82" gradientTransform="matrix(0.03, -375, -2, 0, 1453.91, -42691.21)" xlink:href="#未命名漸層_3"/><linearGradient id="未命名漸層_47" x1="-114.34" y1="498.33" x2="-115.35" y2="497.83" gradientTransform="matrix(0.03, -375, -2, 0, 1457.37, -42693.21)" xlink:href="#未命名漸層_3"/><linearGradient id="未命名漸層_48" x1="-114.34" y1="498.33" x2="-115.35" y2="497.83" gradientTransform="matrix(0.03, -375, -2, 0, 1460.93, -42695.05)" xlink:href="#未命名漸層_3"/><linearGradient id="未命名漸層_49" x1="-114.34" y1="498.33" x2="-115.35" y2="497.83" gradientTransform="matrix(0.03, -375, -2, 0, 1464.3, -42697.21)" xlink:href="#未命名漸層_3"/><linearGradient id="未命名漸層_50" x1="-114.34" y1="498.34" x2="-115.35" y2="497.83" gradientTransform="matrix(0.03, -375, -2, 0, 1467.77, -42699.2)" xlink:href="#未命名漸層_3"/><linearGradient id="未命名漸層_51" x1="-109.9" y1="355.61" x2="-108.9" y2="355.61" gradientTransform="matrix(-62, 0, 0.05, 675, -6725.51, -239574.45)" gradientUnits="userSpaceOnUse"><stop offset="0" stop-color="#fff" stop-opacity="0.4"/><stop offset="1" stop-color="#fff" stop-opacity="0"/></linearGradient><linearGradient id="未命名漸層_52" x1="-109.9" y1="355.58" x2="-108.9" y2="355.58" gradientTransform="matrix(-62, 0, 0.06, 703, -6655.8, -249549.23)" xlink:href="#未命名漸層_51"/><linearGradient id="未命名漸層_53" x1="-108.79" y1="355.58" x2="-107.79" y2="355.58" gradientTransform="matrix(-50, 0, 0.06, 717, -5231.88, -254544.47)" xlink:href="#未命名漸層_51"/><clipPath id="clip-path-3"><rect x="-456" width="375" height="710" fill="none"/></clipPath><clipPath id="clip-path-4"><path d="M-227.31,113.4c-39-12.23-81.36-28.87-141.8-22.22-26.12,2.87-46.44,8.08-86.39,26.33,0,26.08-.42,91.06-.42,91.06L-456,710l374.49.06.09-583.18s-24,4.53-42.36,8.42C-123.77,135.3-188.34,125.63-227.31,113.4Z" fill="none"/></clipPath><linearGradient id="未命名漸層_20-2" x1="-113.74" y1="695.7" x2="-114.74" y2="695.2" gradientTransform="matrix(0.03, -375, -2, 0, 1302.7, -42411.26)" xlink:href="#未命名漸層_3"/><linearGradient id="未命名漸層_21-2" x1="-113.74" y1="695.7" x2="-114.74" y2="695.2" gradientTransform="matrix(0.03, -375, -2, 0, 1306.26, -42413.1)" xlink:href="#未命名漸層_3"/><linearGradient id="未命名漸層_22-2" x1="-113.74" y1="695.7" x2="-114.74" y2="695.2" gradientTransform="matrix(0.03, -375, -2, 0, 1309.63, -42415.26)" xlink:href="#未命名漸層_3"/><linearGradient id="未命名漸層_23-2" x1="-113.74" y1="695.71" x2="-114.74" y2="695.21" gradientTransform="matrix(0.03, -375, -2, 0, 1313.1, -42417.25)" xlink:href="#未命名漸層_3"/><linearGradient id="未命名漸層_24-2" x1="-113.74" y1="695.71" x2="-114.74" y2="695.21" gradientTransform="matrix(0.03, -375, -2, 0, 1316.65, -42419.09)" xlink:href="#未命名漸層_3"/><linearGradient id="未命名漸層_25-2" x1="-113.74" y1="695.71" x2="-114.74" y2="695.21" gradientTransform="matrix(0.03, -375, -2, 0, 1320.03, -42421.25)" xlink:href="#未命名漸層_3"/><linearGradient id="未命名漸層_26-2" x1="-113.74" y1="695.72" x2="-114.74" y2="695.22" gradientTransform="matrix(0.03, -375, -2, 0, 1323.49, -42423.24)" xlink:href="#未命名漸層_3"/><linearGradient id="未命名漸層_27-2" x1="-113.74" y1="695.72" x2="-114.74" y2="695.22" gradientTransform="matrix(0.03, -375, -2, 0, 1327.05, -42425.08)" xlink:href="#未命名漸層_3"/><linearGradient id="未命名漸層_28-2" x1="-113.74" y1="695.72" x2="-114.74" y2="695.22" gradientTransform="matrix(0.03, -375, -2, 0, 1330.42, -42427.24)" xlink:href="#未命名漸層_3"/><linearGradient id="未命名漸層_29-2" x1="-113.74" y1="695.73" x2="-114.74" y2="695.22" gradientTransform="matrix(0.03, -375, -2, 0, 1333.89, -42429.23)" xlink:href="#未命名漸層_3"/><linearGradient id="未命名漸層_30-2" x1="-113.74" y1="695.73" x2="-114.74" y2="695.23" gradientTransform="matrix(0.03, -375, -2, 0, 1337.44, -42431.08)" xlink:href="#未命名漸層_3"/><linearGradient id="未命名漸層_31-2" x1="-113.74" y1="695.73" x2="-114.74" y2="695.23" gradientTransform="matrix(0.03, -375, -2, 0, 1340.82, -42433.23)" xlink:href="#未命名漸層_3"/><linearGradient id="未命名漸層_32-2" x1="-113.74" y1="695.74" x2="-114.74" y2="695.23" gradientTransform="matrix(0.03, -375, -2, 0, 1344.28, -42435.23)" xlink:href="#未命名漸層_3"/><linearGradient id="未命名漸層_33-2" x1="-113.74" y1="695.74" x2="-114.74" y2="695.24" gradientTransform="matrix(0.03, -375, -2, 0, 1347.84, -42437.07)" xlink:href="#未命名漸層_3"/><linearGradient id="未命名漸層_34-2" x1="-113.74" y1="695.74" x2="-114.74" y2="695.24" gradientTransform="matrix(0.03, -375, -2, 0, 1351.21, -42439.22)" xlink:href="#未命名漸層_3"/><linearGradient id="未命名漸層_35-2" x1="-113.74" y1="695.74" x2="-114.74" y2="695.24" gradientTransform="matrix(0.03, -375, -2, 0, 1354.68, -42441.22)" xlink:href="#未命名漸層_3"/><linearGradient id="未命名漸層_36-2" x1="-113.74" y1="695.75" x2="-114.74" y2="695.25" gradientTransform="matrix(0.03, -375, -2, 0, 1358.23, -42443.06)" xlink:href="#未命名漸層_3"/><linearGradient id="未命名漸層_37-2" x1="-113.74" y1="695.75" x2="-114.74" y2="695.25" gradientTransform="matrix(0.03, -375, -2, 0, 1361.61, -42445.21)" xlink:href="#未命名漸層_3"/><linearGradient id="未命名漸層_38-2" x1="-113.74" y1="695.75" x2="-114.74" y2="695.25" gradientTransform="matrix(0.03, -375, -2, 0, 1365.07, -42447.21)" xlink:href="#未命名漸層_3"/><linearGradient id="未命名漸層_39-2" x1="-113.74" y1="695.76" x2="-114.74" y2="695.25" gradientTransform="matrix(0.03, -375, -2, 0, 1368.63, -42449.05)" xlink:href="#未命名漸層_3"/><linearGradient id="未命名漸層_40-2" x1="-113.74" y1="695.76" x2="-114.74" y2="695.26" gradientTransform="matrix(0.03, -375, -2, 0, 1372, -42451.2)" xlink:href="#未命名漸層_3"/><linearGradient id="未命名漸層_41-2" x1="-113.74" y1="695.76" x2="-114.74" y2="695.26" gradientTransform="matrix(0.03, -375, -2, 0, 1375.47, -42453.2)" xlink:href="#未命名漸層_3"/><linearGradient id="未命名漸層_42-2" x1="-113.74" y1="695.77" x2="-114.74" y2="695.26" gradientTransform="matrix(0.03, -375, -2, 0, 1379.02, -42455.04)" xlink:href="#未命名漸層_3"/><linearGradient id="未命名漸層_43-2" x1="-113.74" y1="695.77" x2="-114.74" y2="695.27" gradientTransform="matrix(0.03, -375, -2, 0, 1382.4, -42457.19)" xlink:href="#未命名漸層_3"/><linearGradient id="未命名漸層_44-2" x1="-113.74" y1="695.77" x2="-114.74" y2="695.27" gradientTransform="matrix(0.03, -375, -2, 0, 1385.87, -42459.19)" xlink:href="#未命名漸層_3"/><linearGradient id="未命名漸層_45-2" x1="-113.74" y1="695.77" x2="-114.74" y2="695.27" gradientTransform="matrix(0.03, -375, -2, 0, 1389.42, -42461.03)" xlink:href="#未命名漸層_3"/><linearGradient id="未命名漸層_46-2" x1="-113.74" y1="695.78" x2="-114.74" y2="695.28" gradientTransform="matrix(0.03, -375, -2, 0, 1392.8, -42463.18)" xlink:href="#未命名漸層_3"/><linearGradient id="未命名漸層_47-2" x1="-113.74" y1="695.78" x2="-114.74" y2="695.28" gradientTransform="matrix(0.03, -375, -2, 0, 1396.26, -42465.18)" xlink:href="#未命名漸層_3"/><linearGradient id="未命名漸層_48-2" x1="-113.74" y1="695.78" x2="-114.74" y2="695.28" gradientTransform="matrix(0.03, -375, -2, 0, 1399.82, -42467.02)" xlink:href="#未命名漸層_3"/><linearGradient id="未命名漸層_49-2" x1="-113.74" y1="695.79" x2="-114.74" y2="695.29" gradientTransform="matrix(0.03, -375, -2, 0, 1403.19, -42469.17)" xlink:href="#未命名漸層_3"/><linearGradient id="未命名漸層_50-2" x1="-113.74" y1="695.79" x2="-114.74" y2="695.29" gradientTransform="matrix(0.03, -375, -2, 0, 1406.66, -42471.17)" xlink:href="#未命名漸層_3"/></defs><g clip-path="url(#clip-path)"><path d="M228.69,113.4c-39-12.23-81.36-28.87-141.8-22.22C60.77,94.05,40.45,99.26.5,117.51c0,26.08-.42,91.06-.42,91.06L0,710l374.49.06.09-583.18s-24,4.53-42.36,8.42C332.23,135.3,267.66,125.63,228.69,113.4Z" fill="red" fill-opacity="0"/><g clip-path="url(#clip-path-2)"><g opacity="0.14"><rect x="304.75" y="312.38" width="2" height="374.4" transform="translate(-208.85 219.84) rotate(-30)" fill="url(#未命名漸層_3)"/><rect x="308.11" y="310.22" width="2" height="374.4" transform="translate(-207.32 221.24) rotate(-30)" fill="url(#未命名漸層_4)"/><rect x="311.57" y="308.23" width="2" height="374.4" transform="translate(-205.86 222.7) rotate(-30)" fill="url(#未命名漸層_5)"/><rect x="315.12" y="306.39" width="2" height="374.4" transform="translate(-204.46 224.23) rotate(-30)" fill="url(#未命名漸層_6)"/><rect x="318.49" y="304.23" width="2" height="374.4" transform="translate(-202.93 225.63) rotate(-30)" fill="url(#未命名漸層_7)"/><rect x="321.95" y="302.24" width="2" height="374.4" transform="translate(-201.47 227.09) rotate(-30)" fill="url(#未命名漸層_8)"/><rect x="325.5" y="300.4" width="2" height="374.4" transform="matrix(0.87, -0.5, 0.5, 0.87, -200.08, 228.62)" fill="url(#未命名漸層_9)"/><rect x="328.87" y="298.24" width="2" height="374.4" transform="translate(-198.55 230.01) rotate(-30)" fill="url(#未命名漸層_10)"/><rect x="332.33" y="296.25" width="2" height="374.4" transform="translate(-197.09 231.48) rotate(-30)" fill="url(#未命名漸層_11)"/><rect x="335.88" y="294.41" width="2" height="374.4" transform="translate(-195.69 233) rotate(-30)" fill="url(#未命名漸層_12)"/><rect x="339.25" y="292.25" width="2" height="374.4" transform="matrix(0.87, -0.5, 0.5, 0.87, -194.16, 234.4)" fill="url(#未命名漸層_13)"/><rect x="342.7" y="290.26" width="2" height="374.4" transform="translate(-192.7 235.86) rotate(-30)" fill="url(#未命名漸層_14)"/><rect x="346.25" y="288.42" width="2" height="374.4" transform="translate(-191.3 237.39) rotate(-30)" fill="url(#未命名漸層_15)"/><rect x="349.62" y="286.26" width="2" height="374.4" transform="translate(-189.78 238.79) rotate(-30)" fill="url(#未命名漸層_16)"/><rect x="353.08" y="284.27" width="2" height="374.4" transform="translate(-188.31 240.25) rotate(-30)" fill="url(#未命名漸層_17)"/><rect x="356.63" y="282.43" width="2" height="374.4" transform="translate(-186.92 241.78) rotate(-30)" fill="url(#未命名漸層_18)"/><rect x="360" y="280.27" width="2" height="374.4" transform="translate(-185.39 243.17) rotate(-30)" fill="url(#未命名漸層_19)"/><rect x="363.46" y="278.28" width="2" height="374.4" transform="translate(-183.93 244.63) rotate(-30)" fill="url(#未命名漸層_20)"/><rect x="367.01" y="276.44" width="2" height="374.4" transform="translate(-182.53 246.16) rotate(-30)" fill="url(#未命名漸層_21)"/><rect x="370.38" y="274.28" width="2" height="374.4" transform="translate(-181 247.56) rotate(-30)" fill="url(#未命名漸層_22)"/><rect x="373.84" y="272.29" width="2" height="374.4" transform="translate(-179.54 249.02) rotate(-30)" fill="url(#未命名漸層_23)"/><rect x="377.38" y="270.45" width="2" height="374.4" transform="translate(-178.15 250.55) rotate(-30)" fill="url(#未命名漸層_24)"/><rect x="380.75" y="268.29" width="2" height="374.4" transform="matrix(0.87, -0.5, 0.5, 0.87, -176.62, 251.95)" fill="url(#未命名漸層_25)"/><rect x="384.21" y="266.3" width="2" height="374.4" transform="translate(-175.16 253.41) rotate(-30)" fill="url(#未命名漸層_26)"/><rect x="387.76" y="264.46" width="2" height="374.4" transform="translate(-173.76 254.94) rotate(-30)" fill="url(#未命名漸層_27)"/><rect x="391.13" y="262.3" width="2" height="374.4" transform="translate(-172.23 256.33) rotate(-30)" fill="url(#未命名漸層_28)"/><rect x="394.59" y="260.31" width="2" height="374.4" transform="translate(-170.77 257.79) rotate(-30)" fill="url(#未命名漸層_29)"/><rect x="398.14" y="258.47" width="2" height="374.4" transform="translate(-169.37 259.32) rotate(-30)" fill="url(#未命名漸層_30)"/><rect x="401.51" y="256.31" width="2" height="374.4" transform="translate(-167.85 260.72) rotate(-30)" fill="url(#未命名漸層_31)"/><rect x="404.97" y="254.32" width="2" height="374.4" transform="translate(-166.38 262.18) rotate(-30)" fill="url(#未命名漸層_32)"/><rect x="408.52" y="252.48" width="2" height="374.4" transform="translate(-164.99 263.71) rotate(-30)" fill="url(#未命名漸層_33)"/><rect x="411.88" y="250.32" width="2" height="374.4" transform="translate(-163.46 265.1) rotate(-30)" fill="url(#未命名漸層_34)"/><rect x="415.34" y="248.33" width="2" height="374.4" transform="translate(-162 266.57) rotate(-30)" fill="url(#未命名漸層_35)"/><rect x="418.89" y="246.49" width="2" height="374.4" transform="translate(-160.6 268.09) rotate(-30)" fill="url(#未命名漸層_36)"/><rect x="422.26" y="244.33" width="2" height="374.4" transform="translate(-159.07 269.49) rotate(-30)" fill="url(#未命名漸層_37)"/><rect x="425.72" y="242.34" width="2" height="374.4" transform="translate(-157.61 270.95) rotate(-30)" fill="url(#未命名漸層_38)"/><rect x="429.27" y="240.5" width="2" height="374.4" transform="translate(-156.21 272.48) rotate(-30)" fill="url(#未命名漸層_39)"/><rect x="432.64" y="238.34" width="2" height="374.4" transform="translate(-154.69 273.88) rotate(-30)" fill="url(#未命名漸層_40)"/><rect x="436.1" y="236.35" width="2" height="374.4" transform="translate(-153.22 275.34) rotate(-30)" fill="url(#未命名漸層_41)"/><rect x="439.65" y="234.51" width="2" height="374.4" transform="translate(-151.83 276.87) rotate(-30)" fill="url(#未命名漸層_42)"/><rect x="443.02" y="232.35" width="2" height="374.4" transform="translate(-150.3 278.26) rotate(-30)" fill="url(#未命名漸層_43)"/><rect x="446.47" y="230.36" width="2" height="374.4" transform="translate(-148.84 279.73) rotate(-30)" fill="url(#未命名漸層_44)"/><rect x="450.02" y="228.52" width="2" height="374.4" transform="translate(-147.44 281.25) rotate(-30)" fill="url(#未命名漸層_45)"/><rect x="453.39" y="226.36" width="2" height="374.4" transform="translate(-145.91 282.65) rotate(-30)" fill="url(#未命名漸層_46)"/><rect x="456.85" y="224.37" width="2" height="374.4" transform="translate(-144.45 284.11) rotate(-30)" fill="url(#未命名漸層_47)"/><rect x="460.4" y="222.53" width="2" height="374.4" transform="translate(-143.06 285.64) rotate(-30)" fill="url(#未命名漸層_48)"/><rect x="463.77" y="220.37" width="2" height="374.4" transform="translate(-141.53 287.04) rotate(-30)" fill="url(#未命名漸層_49)"/><rect x="467.23" y="218.38" width="2" height="374.4" transform="translate(-140.07 288.5) rotate(-30)" fill="url(#未命名漸層_50)"/></g><g opacity="0.2"><rect x="45.49" y="122" width="61.91" height="673.91" transform="translate(-219.21 99.68) rotate(-30)" fill="url(#未命名漸層_51)"/><rect x="115.88" y="75.48" width="61.91" height="701.87" transform="translate(-193.51 130.52) rotate(-30)" fill="url(#未命名漸層_52)"/><rect x="178.1" y="44.47" width="49.92" height="715.84" transform="translate(-173.97 155.41) rotate(-30)" fill="url(#未命名漸層_53)"/></g></g></g><g clip-path="url(#clip-path-3)"><path d="M-210.23,118.25c-38.81-9.4-95-37.81-173.54-24.57s-169.06,67.38-154,193.21S-320,560.81-320,560.81s12.92,6.12,49.61,17.05,46.88,39.31,46.88,39.31,16.95,47.56,37.79,70.7S-155,675.05-155,675.05a251.39,251.39,0,0,0,9.14-36.87c3-19.08,34.18-35,34.18-35s35.82-4.11,47.88-2.85,150.9-8.11,224-118S205.87,262,205.87,262s-12.31-56.19-61.72-105.34-201-66.13-201-66.13-40.7-4.07-77.27,16.52C-134.14,107-171.42,127.65-210.23,118.25Z" fill="#26d07c" opacity="0.26" style="isolation:isolate"/><g clip-path="url(#clip-path-4)"><g opacity="0.14"><rect x="-92.54" y="278.28" width="2" height="374.4" transform="translate(-245.04 16.6) rotate(-30)" fill="url(#未命名漸層_20-2)"/><rect x="-88.99" y="276.44" width="2" height="374.4" transform="translate(-243.64 18.13) rotate(-30)" fill="url(#未命名漸層_21-2)"/><rect x="-85.62" y="274.28" width="2" height="374.4" transform="translate(-242.11 19.53) rotate(-30)" fill="url(#未命名漸層_22-2)"/><rect x="-82.16" y="272.29" width="2" height="374.4" transform="translate(-240.65 20.99) rotate(-30)" fill="url(#未命名漸層_23-2)"/><rect x="-78.62" y="270.45" width="2" height="374.4" transform="translate(-239.26 22.52) rotate(-30)" fill="url(#未命名漸層_24-2)"/><rect x="-75.25" y="268.29" width="2" height="374.4" transform="matrix(0.87, -0.5, 0.5, 0.87, -237.73, 23.91)" fill="url(#未命名漸層_25-2)"/><rect x="-71.79" y="266.3" width="2" height="374.4" transform="translate(-236.27 25.38) rotate(-30)" fill="url(#未命名漸層_26-2)"/><rect x="-68.24" y="264.46" width="2" height="374.4" transform="translate(-234.87 26.9) rotate(-30)" fill="url(#未命名漸層_27-2)"/><rect x="-64.87" y="262.3" width="2" height="374.4" transform="translate(-233.34 28.3) rotate(-30)" fill="url(#未命名漸層_28-2)"/><rect x="-61.41" y="260.31" width="2" height="374.4" transform="translate(-231.88 29.76) rotate(-30)" fill="url(#未命名漸層_29-2)"/><rect x="-57.86" y="258.47" width="2" height="374.4" transform="translate(-230.48 31.29) rotate(-30)" fill="url(#未命名漸層_30-2)"/><rect x="-54.49" y="256.31" width="2" height="374.4" transform="translate(-228.96 32.69) rotate(-30)" fill="url(#未命名漸層_31-2)"/><rect x="-51.03" y="254.32" width="2" height="374.4" transform="translate(-227.49 34.15) rotate(-30)" fill="url(#未命名漸層_32-2)"/><rect x="-47.48" y="252.48" width="2" height="374.4" transform="translate(-226.1 35.68) rotate(-30)" fill="url(#未命名漸層_33-2)"/><rect x="-44.12" y="250.32" width="2" height="374.4" transform="translate(-224.57 37.07) rotate(-30)" fill="url(#未命名漸層_34-2)"/><rect x="-40.66" y="248.33" width="2" height="374.4" transform="translate(-223.11 38.54) rotate(-30)" fill="url(#未命名漸層_35-2)"/><rect x="-37.11" y="246.49" width="2" height="374.4" transform="translate(-221.71 40.06) rotate(-30)" fill="url(#未命名漸層_36-2)"/><rect x="-33.74" y="244.33" width="2" height="374.4" transform="translate(-220.18 41.46) rotate(-30)" fill="url(#未命名漸層_37-2)"/><rect x="-30.28" y="242.34" width="2" height="374.4" transform="translate(-218.72 42.92) rotate(-30)" fill="url(#未命名漸層_38-2)"/><rect x="-26.73" y="240.5" width="2" height="374.4" transform="translate(-217.33 44.45) rotate(-30)" fill="url(#未命名漸層_39-2)"/><rect x="-23.36" y="238.34" width="2" height="374.4" transform="translate(-215.8 45.85) rotate(-30)" fill="url(#未命名漸層_40-2)"/><rect x="-19.9" y="236.35" width="2" height="374.4" transform="translate(-214.34 47.31) rotate(-30)" fill="url(#未命名漸層_41-2)"/><rect x="-16.35" y="234.51" width="2" height="374.4" transform="translate(-212.94 48.84) rotate(-30)" fill="url(#未命名漸層_42-2)"/><rect x="-12.98" y="232.35" width="2" height="374.4" transform="translate(-211.41 50.23) rotate(-30)" fill="url(#未命名漸層_43-2)"/><rect x="-9.53" y="230.36" width="2" height="374.4" transform="translate(-209.95 51.69) rotate(-30)" fill="url(#未命名漸層_44-2)"/><rect x="-5.98" y="228.52" width="2" height="374.4" transform="translate(-208.55 53.22) rotate(-30)" fill="url(#未命名漸層_45-2)"/><rect x="-2.61" y="226.36" width="2" height="374.4" transform="translate(-207.03 54.62) rotate(-30)" fill="url(#未命名漸層_46-2)"/><rect x="0.85" y="224.37" width="2" height="374.4" transform="translate(-205.56 56.08) rotate(-30)" fill="url(#未命名漸層_47-2)"/><rect x="4.4" y="222.53" width="2" height="374.4" transform="translate(-204.17 57.61) rotate(-30)" fill="url(#未命名漸層_48-2)"/><rect x="7.77" y="220.37" width="2" height="374.4" transform="translate(-202.64 59.01) rotate(-30)" fill="url(#未命名漸層_49-2)"/><rect x="11.23" y="218.38" width="2" height="374.4" transform="translate(-201.18 60.47) rotate(-30)" fill="url(#未命名漸層_50-2)"/></g></g></g></svg>