<svg xmlns="http://www.w3.org/2000/svg" viewBox="0 0 34 34"><circle cx="17" cy="17" r="17" fill="#323333" opacity="0.7"/><path d="M26,17c0-1.91-2.29-3.14-5.25-3.7C20.19,10.34,18.93,8,17,8s-3.19,2.34-3.75,5.3C10.29,13.86,8,15.09,8,17s2.31,3.17,5.25,3.75C13.83,23.69,15.09,26,17,26s3.17-2.31,3.75-5.25C23.69,20.17,26,18.91,26,17Zm-9-7c.49,0,1.23,1.12,1.64,3.08a23.69,23.69,0,0,0-3.37,0C15.77,11.08,16.51,10,17,10Zm2.13,7A19.35,19.35,0,0,1,19,19a19.35,19.35,0,0,1-2,.12A19.35,19.35,0,0,1,15,19a19.35,19.35,0,0,1-.12-2A19.35,19.35,0,0,1,15,15a19.35,19.35,0,0,1,2-.12A19.35,19.35,0,0,1,19,15,19.35,19.35,0,0,1,19.13,17ZM10,17c0-.47,1.1-1.21,3-1.64v3.28C11.06,18.21,10,17.47,10,17Zm7,7c-.47,0-1.21-1.1-1.64-3h3.28C18.21,22.94,17.47,24,17,24Zm4.09-5.35V15.41c1.92.46,3,1.2,3,1.64S22.94,18.21,21.09,18.69Z" fill="#fff"/></svg>