<svg xmlns="http://www.w3.org/2000/svg" viewBox="0 0 34 34"><circle cx="17" cy="17" r="17" fill="#313333" opacity="0.4"/><path d="M13.74,19.23l-2.31,2.3V20.31a.72.72,0,0,0-1.43,0v3a.7.7,0,0,0,.7.7h3a.7.7,0,0,0,.71-.7.71.71,0,0,0-.71-.71H12.41l2.31-2.3a.69.69,0,0,0,0-1v0a.73.73,0,0,0-1,0h0m-1.3-7.88H13.7a.71.71,0,0,0,.71-.71.7.7,0,0,0-.71-.7h-3a.7.7,0,0,0-.7.7h0v3a.71.71,0,1,0,1.41,0V12.41l2.3,2.31a.71.71,0,0,0,1-1Zm10.89,8.2a.7.7,0,0,0-.71.7h0V21.6l-2.3-2.31a.71.71,0,0,0-1-.13.23.23,0,0,0-.07.07.68.68,0,0,0-.07,1l.07.06h0l2.3,2.31H20.31a.7.7,0,0,0-.7.7.7.7,0,0,0,.7.71h3a.7.7,0,0,0,.7-.71h0v-3a.7.7,0,0,0-.7-.7m-3-4.87,2.31-2.31v1.26a.7.7,0,0,0,.7.7.7.7,0,0,0,.71-.7h0v-3a.7.7,0,0,0-.68-.7h-3a.7.7,0,0,0-.7.7.7.7,0,0,0,.7.71H21.6l-2.31,2.3a.75.75,0,0,0,0,1,.72.72,0,0,0,1,0" fill="#fff" fill-rule="evenodd"/></svg>