<svg xmlns="http://www.w3.org/2000/svg" viewBox="0 0 154 42">
  <title>fun市集</title>
  <g>
    <path d="M14.36,21.53c-.83,0-1.29.87-1.37,1.68a1.89,1.89,0,0,0,.34,1.42A.92.92,0,0,0,14,25c1.08,0,1.27-1.43,1.29-1.71A2,2,0,0,0,15,21.79a.85.85,0,0,0-.62-.26M31.66,7.59C28,5.86,25.5,7,23.28,7.79h0a6.39,6.39,0,0,1-1.42.34,5.74,5.74,0,0,1-3.54-.71c-.15-.09-.45-.19-.6-.28L17,6.83C1.3-.13.08,14.59.08,14.59s-1.91,14,13,16.86h0A3,3,0,0,1,15.44,34c.1,2.39.37,5.74,4.16-.75a4,4,0,0,1,3.19-1.52h0C36,30.06,37,18.37,37,18.37s1-7.76-5.28-10.77M17,23.21c-.16,1.86-1.15,3-2.65,3a2,2,0,0,1-1.57-.69v.55H11.15l.72-8.2h1.6L13.19,21a2.17,2.17,0,0,1,1.65-.73,2,2,0,0,1,1.57.63A3.14,3.14,0,0,1,17,23.21m4.82-2.83-.1,1.21H20.45l-.39,4.47h-1.6l.39-4.47H17.79l.11-1.21H19l.06-.69A1.93,1.93,0,0,1,21,17.75h.08a4.72,4.72,0,0,1,1.06.12h.08l-.26,1.37-.2-.14a1,1,0,0,0-.46-.1c-.44,0-.59.32-.63.77,0,.15,0,.6,0,.6Zm3.27,5.17-.09.34a1.12,1.12,0,0,1-1.37.77l-.75-.22a1.09,1.09,0,0,1-.77-1.35h0l.1-.33A1.08,1.08,0,0,1,23.53,24h0l.76.21a1.12,1.12,0,0,1,.77,1.37m-.16-2.4-1.45-.36.6-4.29h2.43ZM25.79,13c-.24.13-6,3.54-11.28-1a1.39,1.39,0,0,1-.46-.76,1.45,1.45,0,0,1,.31-1.29,1.54,1.54,0,0,1,2-.16,8.27,8.27,0,0,0,8,.64,1.44,1.44,0,0,1,1.37,2.52" fill="#00d473"/>
    <path d="M58.49,7.72l-.29,3.33H54.94a1.77,1.77,0,0,0-1.21.4,2,2,0,0,0-.5,1.29l-.15,1.8h4.57l-.28,3.22H52.8l-1.29,14.7H47.56l1.28-14.7h-4l.28-3.22h4l.17-1.91A5.39,5.39,0,0,1,50.89,9a5.39,5.39,0,0,1,3.8-1.31Z" fill="#00d473"/>
    <path d="M64.8,14.55l-1,10.93a4.36,4.36,0,0,0,.62,3.19,3.44,3.44,0,0,0,2.9,1A4,4,0,0,0,70,28.57a7.25,7.25,0,0,0,2-3.05l1-11h4l-1.71,18h-4l.2-2.32A7.68,7.68,0,0,1,65.68,33c-4.3,0-6.24-2.43-5.81-7.25l1-11.16Z" fill="#00d473"/>
    <path d="M97.1,21.41l-1,11.06H92.18l.93-10.71c.26-3-1-4.4-3.67-4.4a3.9,3.9,0,0,0-2.65,1A5.49,5.49,0,0,0,85,21.71L84,32.47H80.15l1.56-17.92h4l-.19,2.08A8.24,8.24,0,0,1,88,14.72a7.06,7.06,0,0,1,3-.66c4.47,0,6.51,2.43,6.08,7.35" fill="#00d473"/>
    <path d="M113.25,10.54a22.27,22.27,0,0,0-1-2.61l3.18-.49a31,31,0,0,1,.86,3.1h11l-.25,2.8h-11l-.25,2.77h9l-.9,10.34a2.78,2.78,0,0,1-2.75,2.8l-.38,0H118l-.51-2.73,2.62.14c.61,0,1-.28,1-.83l.62-7H115.6l-1.27,14.49h-2.94l1.27-14.47h-5.79L106,29.42h-2.87l1.16-13.31h8.65l.24-2.77h-11l.24-2.8Z" fill="#00d473"/>
    <path d="M129.64,26.89l.23-2.63h10.7l.09-1h2.9l-.09,1H154l-.23,2.63H146.5a19.12,19.12,0,0,0,7.34,3.19l-1.47,2.57q-6.3-2.25-8.89-5.77h-.27l-.56,6.49h-2.89l.57-6.49h-.25c-2,2.27-5.22,4.21-9.77,5.88L129,30.26a27,27,0,0,0,8.09-3.38Zm1.71-9.75L129.85,15a22.44,22.44,0,0,0,5.78-7.4l2.64.58c-.28.64-.61,1.25-.94,1.86h5.07a17.76,17.76,0,0,0-1-2l3-.5q.48,1.26.84,2.55h8.64l-.21,2.39h-8.48l-.11,1.22h7.33l-.19,2.16h-7.33l-.1,1.19h7.35L152,19.12h-7.35l-.11,1.27h9l-.21,2.39H132.44l.64-7.23c-.55.56-1.12,1.08-1.71,1.61m10.42,2h-6.36l-.12,1.27h6.35Zm.29-3.36h-6.36L135.61,17H142Zm.29-3.38H136l-.1,1.22h6.34Z" fill="#00d473"/>
  </g>
</svg>
