<svg width="45" height="50" xmlns="http://www.w3.org/2000/svg" xmlns:xlink="http://www.w3.org/1999/xlink">
    <defs>
        <linearGradient x1="50%" y1="0%" x2="50%" y2="100%" id="c">
            <stop stop-color="#EF5959" offset="0%"/>
            <stop stop-color="#EC4F4F" offset="100%"/>
        </linearGradient>
        <filter x="-18.3%" y="-16.2%" width="136.7%" height="132.4%" filterUnits="objectBoundingBox" id="b">
            <feMorphology radius=".75" operator="dilate" in="SourceAlpha" result="shadowSpreadOuter1"/>
            <feOffset in="shadowSpreadOuter1" result="shadowOffsetOuter1"/>
            <feGaussianBlur stdDeviation="2" in="shadowOffsetOuter1" result="shadowBlurOuter1"/>
            <feComposite in="shadowBlurOuter1" in2="SourceAlpha" operator="out" result="shadowBlurOuter1"/>
            <feColorMatrix values="0 0 0 0 0 0 0 0 0 0 0 0 0 0 0 0 0 0 0.1 0" in="shadowBlurOuter1"/>
        </filter>
        <path d="m34.634 32.87-14.04 8.206a4.336 4.336 0 0 1-4.37 0L2.185 32.87A4.419 4.419 0 0 1 0 29.04V12.627c0-1.584.83-3.043 2.184-3.83L16.224.59a4.337 4.337 0 0 1 4.37 0l14.04 8.207a4.419 4.419 0 0 1 2.184 3.83V29.04a4.43 4.43 0 0 1-2.184 3.83" id="a"/>
    </defs>
    <g transform="translate(4.09 4.167)" fill="none" fill-rule="evenodd">
        <mask id="d" fill="#fff">
            <use xlink:href="#a"/>
        </mask>
        <use fill="#000" filter="url(#b)" xlink:href="#a"/>
        <use stroke="#FFF" stroke-width="1.5" fill="url(#c)" xlink:href="#a"/>
        <path d="m34.634 12.036-14.04 8.207a4.336 4.336 0 0 1-4.37 0l-14.04-8.207A4.419 4.419 0 0 1 0 8.206V-8.206c0-1.583.83-3.042 2.184-3.83l14.04-8.206a4.337 4.337 0 0 1 4.37 0l14.04 8.207a4.419 4.419 0 0 1 2.184 3.83V8.206a4.43 4.43 0 0 1-2.184 3.83" fill="#FFF" opacity=".06" mask="url(#d)"/>
        <path d="m34.634 53.703-14.04 8.207a4.336 4.336 0 0 1-4.37 0l-14.04-8.207A4.419 4.419 0 0 1 0 49.873V33.46c0-1.583.83-3.042 2.184-3.83l14.04-8.206a4.337 4.337 0 0 1 4.37 0l14.04 8.207a4.419 4.419 0 0 1 2.184 3.829v16.414a4.43 4.43 0 0 1-2.184 3.829" fill="#000" opacity=".03" mask="url(#d)"/>
    </g>
</svg>
