<svg id="圖層_1" data-name="圖層 1" xmlns="http://www.w3.org/2000/svg" xmlns:xlink="http://www.w3.org/1999/xlink" viewBox="0 0 64 20"><defs><mask id="mask" x="0" y="-40.44" width="64" height="40.96" maskUnits="userSpaceOnUse"/><linearGradient id="未命名漸層_3" x1="6.31" y1="0.34" x2="7.29" y2="0.34" gradientTransform="matrix(16.38, -11.47, -20.65, -29.49, -77.64, 68.12)" gradientUnits="userSpaceOnUse"><stop offset="0" stop-color="#fff" stop-opacity="0"/><stop offset="1" stop-color="#fff" stop-opacity="0.2"/></linearGradient><linearGradient id="未命名漸層_4" x1="6.31" y1="0.34" x2="7.29" y2="0.34" gradientTransform="matrix(16.38, -11.47, -20.65, -29.49, -62.64, 68.12)" xlink:href="#未命名漸層_3"/><clipPath id="clip-path"><rect width="64" height="20" fill="none"/></clipPath><linearGradient id="未命名漸層" x1="7.39" y1="-1.35" x2="7.39" y2="-2.35" gradientTransform="matrix(64, 0, 0, -20, -441, -27.08)" gradientUnits="userSpaceOnUse"><stop offset="0" stop-color="#44d4ff"/><stop offset="1" stop-color="#38c3ed"/></linearGradient><mask id="mask-3" x="0" y="-6.48" width="64" height="40.96" maskUnits="userSpaceOnUse"><g id="d"><path id="a" d="M9.94,0A10,10,0,0,0,0,10V20H54.06A10,10,0,0,0,64,10V0Z" fill="#fff" fill-rule="evenodd"/></g></mask><linearGradient id="未命名漸層_3-2" x1="5.34" y1="-0.44" x2="6.31" y2="-0.44" xlink:href="#未命名漸層_3"/><linearGradient id="未命名漸層_4-2" x1="5.34" y1="-0.44" x2="6.31" y2="-0.44" gradientTransform="matrix(16.38, -11.47, -20.65, -29.49, -62.64, 68.12)" xlink:href="#未命名漸層_3"/></defs><g mask="url(#mask)"><path d="M8.48-29,24.87-40.44,45.52-10.95,29.13.52Z" fill-rule="evenodd" fill="url(#未命名漸層_3)"/></g><g mask="url(#mask)"><path d="M23.48-29,39.87-40.44,60.52-10.95,44.13.52Z" fill-rule="evenodd" fill="url(#未命名漸層_4)"/></g><g clip-path="url(#clip-path)"><path id="a-3" data-name="a" d="M-2.62,0c-8.62,0-15.6,4.48-15.6,10V20H66.62c8.62,0,15.6-4.48,15.6-10V0Z" fill-rule="evenodd" fill="url(#未命名漸層)"/><g mask="url(#mask-3)"><path d="M8.48,5,24.87-6.48,45.52,23,29.13,34.48Z" fill-rule="evenodd" fill="url(#未命名漸層_3-2)"/></g><g mask="url(#mask-3)"><path d="M23.48,5,39.87-6.48,60.52,23,44.13,34.48Z" fill-rule="evenodd" fill="url(#未命名漸層_4-2)"/></g></g></svg>