<svg width="74" height="40" xmlns="http://www.w3.org/2000/svg" xmlns:xlink="http://www.w3.org/1999/xlink">
    <defs>
        <path d="M30.024 5.4c3.377-.8 6.685-1.46 10.561.786 3.877 2.245 8.276 9.45 2.954 18.216-5.322 8.766-14.929 8.968-14.929 8.968s-.888.147-3.3.171c-2.411.025-3.521 1.568-3.521 1.568s-1.853 2.586-3.517 3.626-1.634-1.31-1.634-1.31-.06-1.183.087-2.391c.148-1.209-1.463-2.711-1.463-2.711s-2.097-.871-2.85-1.004c-.751-.133-8.996-3.111-11.514-11.037C-1.62 12.357 1.956 6.14 1.956 6.14S3.677 2.95 7.523.832c3.845-2.12 10.907.481 10.907.481s4.164 1.984 5.693 2.89c0 0 2.523 1.996 5.9 1.197z" id="a"/>
    </defs>
    <g fill="none" fill-rule="evenodd">
        <g transform="translate(28)">
            <mask id="b" fill="#fff">
                <use xlink:href="#a"/>
            </mask>
            <use fill="#26D07C" xlink:href="#a"/>
            <path d="M28.542 3c10.346 9.085 9.31 19.585-3.111 31.5C13.01 46.415 21.56 52.582 51.08 53l2.063-21 3.464-29.528L45.147-4 28.542 3z" fill="#000" opacity=".054" mask="url(#b)"/>
        </g>
        <path d="M42 13.5a4.5 4.5 0 1 1-9 0 4.5 4.5 0 0 1 9 0M51 15.5a4.5 4.5 0 1 1-9 0 4.5 4.5 0 0 1 9 0" fill="#FEFEFE"/>
        <path d="M40 14a2 2 0 1 1-4 0 2 2 0 0 1 4 0M49 16a2 2 0 1 1-4 0 2 2 0 0 1 4 0" fill="#050101"/>
        <path stroke="#26D07C" opacity=".435" d="M22 12 1 1M21 30 1 39"/>
    </g>
</svg>
