<svg id="圖層_1" data-name="圖層 1" xmlns="http://www.w3.org/2000/svg" viewBox="0 0 46 40">
  <path d="M30,5.9c3.38-.8,6.69-1.46,10.56.79s8.28,9.45,3,18.21a19.13,19.13,0,0,1-14.93,9,24.24,24.24,0,0,1-3.3.17,4.49,4.49,0,0,0-3.52,1.57,16.56,16.56,0,0,1-3.52,3.62c-1.66,1-1.63-1.31-1.63-1.31a15.87,15.87,0,0,1,.09-2.39c.14-1.21-1.47-2.71-1.47-2.71a22.4,22.4,0,0,0-2.85-1c-.75-.13-9-3.11-11.51-11A18.8,18.8,0,0,1,2,6.64,15,15,0,0,1,7.52,1.33c3.85-2.12,10.91.48,10.91.48s4.16,2,5.69,2.89A7.4,7.4,0,0,0,30,5.9Z" fill="#26d07c" fill-rule="evenodd"/>
  <path d="M14,14A4.5,4.5,0,1,1,9.5,9.5h0A4.49,4.49,0,0,1,14,14v0m9,2a4.5,4.5,0,1,1-4.5-4.5A4.49,4.49,0,0,1,23,16h0" fill="#fefefe" fill-rule="evenodd"/>
  <path d="M40.59,6.69C37,4.61,33.92,5,30.81,5.72Q42.2,18.18,26.43,34a19.79,19.79,0,0,0,2.18-.15,19.13,19.13,0,0,0,14.93-9C48.86,16.14,44.46,8.93,40.59,6.69Z" fill-rule="evenodd" opacity="0.05" style="isolation: isolate"/>
  <path d="M12,14.5a2,2,0,1,1-2-2,2,2,0,0,1,2,2" fill="#050101" fill-rule="evenodd"/>
  <path d="M21,16.5a2,2,0,1,1-2-2,2,2,0,0,1,2,2" fill="#050101" fill-rule="evenodd"/>
</svg>
