<svg id="圖層_1" data-name="圖層 1" xmlns="http://www.w3.org/2000/svg" xmlns:xlink="http://www.w3.org/1999/xlink" viewBox="0 0 80.96 56.64">
  <defs>
    <clipPath id="clip-path">
      <path id="a" d="M14.84,11.81h.4A12.86,12.86,0,0,1,20.05,13l.5.23a32.15,32.15,0,0,1,9.54,7.43,8.2,8.2,0,0,0,6,3.13l.32,0c3.78.17,7.44.55,10.83,4.11l.11.12c3.42,3.73,5.76,12.84-2.63,20.67l-.28.26a21.42,21.42,0,0,1-18.63,4.92,28.87,28.87,0,0,1-3.61-.84L21.93,53a4.94,4.94,0,0,0-4,.68h0A18.77,18.77,0,0,1,13,56.54l-.18.05c-1.9.43-1.17-2-1.17-2l.07-.23c.5-1.59,1.25-3.17.54-4.81l-.1-.23A7.21,7.21,0,0,0,9,46.64l0,0C8,46.08.24,40.32,0,31v-.36c-.06-7.41,3.69-15.47,10.88-18.11a11.55,11.55,0,0,1,4-.76Z" fill="none" clip-rule="evenodd"/>
    </clipPath>
    <filter id="luminosity-noclip" x="1.32" y="9.42" width="65.17" height="73.16" filterUnits="userSpaceOnUse" color-interpolation-filters="sRGB">
      <feFlood flood-color="#fff" result="bg"/>
      <feBlend in="SourceGraphic" in2="bg"/>
    </filter>
    <mask id="mask" x="1.32" y="9.42" width="65.17" height="73.16" maskUnits="userSpaceOnUse">
      <g id="b" filter="url(#luminosity-noclip)">
        <path id="a-2" data-name="a" d="M21.42,9.82l.39.12A13,13,0,0,1,26.1,12.4l.42.36a32,32,0,0,1,7.12,9.77,8.23,8.23,0,0,0,4.89,4.66l.3.1c3.58,1.21,7,2.59,9.28,6.93l.07.15c2.26,4.53,2,13.93-8.22,19.15l-.34.17a21.43,21.43,0,0,1-19.27-.41,28.65,28.65,0,0,1-3.24-1.8l-.22-.13a5,5,0,0,0-4.07-.45h0a18.67,18.67,0,0,1-5.52,1.4H7.11c-1.94-.11-.59-2.23-.59-2.23l.13-.2c.93-1.39,2.08-2.7,1.86-4.48l0-.25a7.14,7.14,0,0,0-2.29-3.46l0,0c-.79-.78-6.62-8.45-4.29-17.43l.1-.35C3.94,16.73,9.77,10,17.41,9.45a11.59,11.59,0,0,1,4,.37Z" fill="#fff" fill-rule="evenodd"/>
      </g>
    </mask>
  </defs>
  <path id="a-3" data-name="a" d="M14.84,11.81h.4A12.86,12.86,0,0,1,20.05,13l.5.23a32.15,32.15,0,0,1,9.54,7.43,8.2,8.2,0,0,0,6,3.13l.32,0c3.78.17,7.44.55,10.83,4.11l.11.12c3.42,3.73,5.76,12.84-2.63,20.67l-.28.26a21.42,21.42,0,0,1-18.63,4.92,28.87,28.87,0,0,1-3.61-.84L21.93,53a4.94,4.94,0,0,0-4,.68h0A18.77,18.77,0,0,1,13,56.54l-.18.05c-1.9.43-1.17-2-1.17-2l.07-.23c.5-1.59,1.25-3.17.54-4.81l-.1-.23A7.21,7.21,0,0,0,9,46.64l0,0C8,46.08.24,40.32,0,31v-.36c-.06-7.41,3.69-15.47,10.88-18.11a11.55,11.55,0,0,1,4-.76Z" fill="#26d07c" fill-rule="evenodd"/>
  <g>
    <path d="M59.25,21.23a3.42,3.42,0,0,0-4.9.15,3.58,3.58,0,0,0,.11,5,3.42,3.42,0,0,0,4.87-.12,3.57,3.57,0,0,0-.08-5m21.52-9.48a14.27,14.27,0,0,0-.27-5.91,9.7,9.7,0,0,0-2.43-4.7A3.67,3.67,0,0,0,75.61,0a3.19,3.19,0,0,0-2.45,1.09,3,3,0,0,0-.81,2.09,2.81,2.81,0,0,0,.84,2.09,8.43,8.43,0,0,0,1.28,1,7.42,7.42,0,0,1,1.21.92A4.9,4.9,0,0,1,77.41,10a3.88,3.88,0,0,1-1.34,2.7,3.17,3.17,0,0,1-1.77,1,10.35,10.35,0,0,1-3.78-.41,11.84,11.84,0,0,0-4.62-.42,5.19,5.19,0,0,0-2.83,1.6L60,17.8l-.06.1a1.69,1.69,0,0,0,.4,2.19,2.18,2.18,0,0,0,.83.54,1.43,1.43,0,0,0,1.5-.38l.75-.81a2,2,0,0,1,1.17-.64,8.4,8.4,0,0,1,3,.44,12.24,12.24,0,0,0,6.43.35,10.25,10.25,0,0,0,4.54-3,9.13,9.13,0,0,0,2.25-4.86m-5.07,29A2.57,2.57,0,0,0,75,39a2.23,2.23,0,0,0-1.76-.64,2.08,2.08,0,0,0-1.41.7,2.06,2.06,0,0,0-.56,1.53,5.94,5.94,0,0,0,.18,1,4.44,4.44,0,0,1,.14.74,2.26,2.26,0,0,1-.25,1.52,1.73,1.73,0,0,1-1.22.41,1.28,1.28,0,0,1-.82-.2A5.41,5.41,0,0,1,68,42.58a7.12,7.12,0,0,0-1.88-2.09,3.27,3.27,0,0,0-2-.5l-2.54.16-.1,0a1.38,1.38,0,0,0-1,1.18A2.4,2.4,0,0,0,58,39.45a2.27,2.27,0,0,0-1.63.82A2.35,2.35,0,0,0,55.74,42a2.39,2.39,0,0,0,.8,1.66,2.32,2.32,0,0,0,1.73.61,2.35,2.35,0,0,0,1.65-.82,2.39,2.39,0,0,0,.6-1.4,1.27,1.27,0,0,0,1.33,1l.61,0a.73.73,0,0,1,.43.11,4.6,4.6,0,0,1,.93,1.2,7.44,7.44,0,0,0,2.69,2.79,5.56,5.56,0,0,0,.71.29,6.48,6.48,0,0,0,2.5.28,5.28,5.28,0,0,0,3-1.22,8.39,8.39,0,0,0,2.2-2.68,6,6,0,0,0,.8-3.12" fill="#26d07c" fill-rule="evenodd"/>
    <path d="M16.42,27.26a5.12,5.12,0,1,1-3.49-6.39,5.15,5.15,0,0,1,3.49,6.39" fill="#fefefe" fill-rule="evenodd"/>
    <path d="M25.62,32.29a5.11,5.11,0,1,1-3.49-6.39,5.15,5.15,0,0,1,3.49,6.39" fill="#fefefe" fill-rule="evenodd"/>
    <path d="M14.08,27.18a2.28,2.28,0,1,1-1.56-2.83,2.28,2.28,0,0,1,1.56,2.83m9.2,5a2.27,2.27,0,1,1-1.55-2.84,2.29,2.29,0,0,1,1.55,2.84" fill="#050101" fill-rule="evenodd"/>
  </g>
  <g clip-path="url(#clip-path)">
    <g mask="url(#mask)">
      <path d="M35.64,20.2Q48.29,40.14,22.25,54.07t22.17,28.5L53.33,60,66.49,28.41,56,17.66Z" fill-rule="evenodd" opacity="0.05" style="isolation: isolate"/>
    </g>
  </g>
</svg>
