<svg width="595" height="785" viewBox="0 0 595 785" fill="none" xmlns="http://www.w3.org/2000/svg">
<g opacity="0.05">
<path fill-rule="evenodd" clip-rule="evenodd" d="M423.487 221.053C410.477 204.401 395.898 189.674 380.108 176.9L455.834 273.826C447.26 255.414 436.497 237.705 423.487 221.053Z" fill="#2CC57A"/>
<path fill-rule="evenodd" clip-rule="evenodd" d="M325.784 142.457L476.005 334.731C474.21 325.826 471.969 316.989 469.277 308.253L349.848 155.391C342.023 150.666 333.991 146.353 325.784 142.457Z" fill="#2CC57A"/>
<path fill-rule="evenodd" clip-rule="evenodd" d="M286.62 126.088L481.169 375.1C480.871 368.444 480.336 361.796 479.558 355.172L305.567 132.472C299.327 130.116 293.007 127.988 286.62 126.088Z" fill="#2CC57A"/>
<path fill-rule="evenodd" clip-rule="evenodd" d="M252.189 118.418L480.6 410.77C481.035 405.165 481.302 399.548 481.402 393.93L268.724 121.714C263.248 120.452 257.734 119.353 252.189 118.418Z" fill="#2CC57A"/>
<path fill-rule="evenodd" clip-rule="evenodd" d="M222.453 114.476L477.337 440.712C478.258 435.786 479.047 430.839 479.707 425.878L237.419 115.765C232.447 115.205 227.457 114.774 222.453 114.476Z" fill="#2CC57A"/>
<path fill-rule="evenodd" clip-rule="evenodd" d="M196.179 113.686L472.611 467.503C473.894 463.075 475.07 458.622 476.136 454.149L209.989 113.495C205.39 113.448 200.785 113.512 196.179 113.686Z" fill="#2CC57A"/>
<path fill-rule="evenodd" clip-rule="evenodd" d="M170.559 115.654L464.23 491.535C465.808 487.507 467.291 483.449 468.682 479.366L183.444 114.278C179.146 114.64 174.85 115.097 170.559 115.654Z" fill="#2CC57A"/>
<path fill-rule="evenodd" clip-rule="evenodd" d="M146.172 119.198L454.618 513.991C456.443 510.296 458.184 506.568 459.843 502.812L158.283 116.832C154.237 117.534 150.198 118.321 146.172 119.198Z" fill="#2CC57A"/>
<path fill-rule="evenodd" clip-rule="evenodd" d="M123.631 125.105L443.159 534.083C445.205 530.683 447.172 527.246 449.069 523.78L135.057 121.864C131.235 122.865 127.425 123.943 123.631 125.105Z" fill="#2CC57A"/>
<path fill-rule="evenodd" clip-rule="evenodd" d="M102.514 132.195L431.277 552.993C433.52 549.857 435.696 546.685 437.802 543.479L113.324 128.165C109.703 129.433 106.099 130.777 102.514 132.195Z" fill="#2CC57A"/>
<path fill-rule="evenodd" clip-rule="evenodd" d="M82.6268 140.861L418.162 570.327C420.59 567.435 422.953 564.503 425.254 561.536L92.8714 136.107C89.4366 137.622 86.0203 139.204 82.6268 140.861Z" fill="#2CC57A"/>
<path fill-rule="evenodd" clip-rule="evenodd" d="M63.1649 150.709L403.626 586.479C406.228 583.817 408.772 581.116 411.254 578.376L72.8727 145.268C69.6134 147.013 66.3773 148.829 63.1649 150.709Z" fill="#2CC57A"/>
<path fill-rule="evenodd" clip-rule="evenodd" d="M44.9334 163.133L387.857 602.055C390.627 599.613 393.34 597.131 395.997 594.607L54.1294 157.036C51.038 159.004 47.9729 161.036 44.9334 163.133Z" fill="#2CC57A"/>
<path fill-rule="evenodd" clip-rule="evenodd" d="M30.3797 172.196C29.2928 173.045 28.2153 173.902 27.1438 174.763L370.645 614.424C371.74 613.594 372.832 612.755 373.919 611.906C375.728 610.492 377.515 609.06 379.282 607.613L35.8431 168.031C34.0114 169.396 32.1892 170.782 30.3797 172.196Z" fill="#2CC57A"/>
<path fill-rule="evenodd" clip-rule="evenodd" d="M12.3986 189.728L354.392 627.46C357.462 625.465 360.507 623.407 363.525 621.283L20.6016 182.361C17.8108 184.775 15.0769 187.232 12.3986 189.728Z" fill="#2CC57A"/>
<path fill-rule="evenodd" clip-rule="evenodd" d="M-3.66696 203.565L335.456 637.623C338.694 635.849 341.91 634.009 345.101 632.101L4.02441 195.543C1.40078 198.177 -1.16238 200.852 -3.66696 203.565Z" fill="#2CC57A"/>
<path fill-rule="evenodd" clip-rule="evenodd" d="M-16.6743 221.395L316.464 647.792C319.876 646.248 323.268 644.634 326.638 642.949L-9.5127 212.695C-11.9635 215.557 -14.35 218.458 -16.6743 221.395Z" fill="#2CC57A"/>
<path fill-rule="evenodd" clip-rule="evenodd" d="M-30.0336 239.056L295.823 656.133C299.42 654.833 302.999 653.457 306.56 652.009L-23.4346 229.635C-25.7013 232.74 -27.9025 235.88 -30.0336 239.056Z" fill="#2CC57A"/>
<path fill-rule="evenodd" clip-rule="evenodd" d="M-42.1108 258.356L273.9 662.832C277.697 661.797 281.482 660.686 285.25 659.493L-36.125 248.151C-38.195 251.519 -40.1886 254.922 -42.1108 258.356Z" fill="#2CC57A"/>
<path fill-rule="evenodd" clip-rule="evenodd" d="M-52.094 279.698L250.883 667.491C254.899 666.748 258.906 665.923 262.901 665.007L-46.7764 268.637C-48.6317 272.293 -50.4018 275.981 -52.094 279.698Z" fill="#2CC57A"/>
<path fill-rule="evenodd" clip-rule="evenodd" d="M-61.7546 302.731L225.545 670.458C229.808 670.049 234.068 669.545 238.322 668.944L-57.1953 290.699C-58.8074 294.681 -60.3269 298.693 -61.7546 302.731Z" fill="#2CC57A"/>
<path fill-rule="evenodd" clip-rule="evenodd" d="M-68.0355 327.532L200.825 671.657C205.383 671.649 209.947 671.532 214.51 671.306L-64.3848 314.337C-65.7075 318.711 -66.9247 323.111 -68.0355 327.532Z" fill="#2CC57A"/>
<path fill-rule="evenodd" clip-rule="evenodd" d="M-73.6558 355.736L171.445 669.452C176.361 669.934 181.293 670.289 186.236 670.516L-71.1104 341.127C-72.0856 345.979 -72.9351 350.85 -73.6558 355.736Z" fill="#2CC57A"/>
<path fill-rule="evenodd" clip-rule="evenodd" d="M-76.0197 387.83L140.809 665.358C146.212 666.518 151.65 667.52 157.115 668.362L-74.9893 371.282C-75.4943 376.788 -75.8379 382.307 -76.0197 387.83Z" fill="#2CC57A"/>
<path fill-rule="evenodd" clip-rule="evenodd" d="M-73.9331 423.619L105.724 653.569C111.848 655.756 118.044 657.728 124.3 659.48L-75.1738 404.164C-74.9875 410.658 -74.5738 417.148 -73.9331 423.619Z" fill="#2CC57A"/>
<path fill-rule="evenodd" clip-rule="evenodd" d="M-64.6522 470.617L63.4425 634.571C70.9797 638.852 78.6941 642.762 86.5601 646.293L-70.4336 445.351C-68.91 453.837 -66.9823 462.268 -64.6522 470.617Z" fill="#2CC57A"/>
<path fill-rule="evenodd" clip-rule="evenodd" d="M-16.8171 563.978C-1.37969 583.737 16.0506 600.96 34.9106 615.568L-54.3604 501.307C-44.7486 523.14 -32.2546 544.219 -16.8171 563.978Z" fill="#2CC57A"/>
</g>
</svg>
