<svg width="750" height="751" viewBox="0 0 750 751" fill="none" xmlns="http://www.w3.org/2000/svg">
<g opacity="0.05">
<path fill-rule="evenodd" clip-rule="evenodd" d="M623.702 501.545C633.206 482.671 640.299 463.2 645.109 443.468L589.791 553.326C602.78 537.712 614.199 520.419 623.702 501.545" fill="#2CC57A"/>
<path fill-rule="evenodd" clip-rule="evenodd" d="M653.063 379.638L543.327 597.569C550.614 592.144 557.648 586.344 564.398 580.181L651.641 406.921C652.573 397.828 653.043 388.723 653.063 379.638" fill="#2CC57A"/>
<path fill-rule="evenodd" clip-rule="evenodd" d="M651.144 337.235L509.026 619.474C514.918 616.362 520.701 613.04 526.36 609.509L653.46 357.094C652.927 350.445 652.153 343.821 651.144 337.235" fill="#2CC57A"/>
<path fill-rule="evenodd" clip-rule="evenodd" d="M643.381 302.825L476.528 634.188C481.783 632.188 486.976 630.032 492.099 627.723L647.46 319.184C646.264 313.693 644.904 308.238 643.381 302.825" fill="#2CC57A"/>
<path fill-rule="evenodd" clip-rule="evenodd" d="M634.25 274.252L448.059 644.02C452.907 642.75 457.717 641.351 462.484 639.83L639.474 288.336C637.858 283.6 636.117 278.904 634.25 274.252" fill="#2CC57A"/>
<path fill-rule="evenodd" clip-rule="evenodd" d="M623.748 250.155L421.815 651.184C426.366 650.455 430.895 649.617 435.396 648.671L629.816 262.563C627.895 258.384 625.872 254.247 623.748 250.155" fill="#2CC57A"/>
<path fill-rule="evenodd" clip-rule="evenodd" d="M611.031 227.828L396.505 653.866C400.822 653.573 405.124 653.181 409.41 652.696L617.776 238.892C615.613 235.16 613.366 231.47 611.031 227.828" fill="#2CC57A"/>
<path fill-rule="evenodd" clip-rule="evenodd" d="M597.414 207.288L372.094 654.761C376.215 654.834 380.329 654.816 384.434 654.713L604.723 217.23C602.361 213.871 599.926 210.555 597.414 207.288" fill="#2CC57A"/>
<path fill-rule="evenodd" clip-rule="evenodd" d="M582.448 189.426L349.033 652.977C352.982 653.375 356.929 653.687 360.873 653.922L590.257 198.375C587.72 195.347 585.119 192.361 582.448 189.426" fill="#2CC57A"/>
<path fill-rule="evenodd" clip-rule="evenodd" d="M567.021 173.358L326.86 650.305C330.654 650.995 334.451 651.608 338.25 652.144L575.281 181.412C572.588 178.68 569.834 175.994 567.021 173.358" fill="#2CC57A"/>
<path fill-rule="evenodd" clip-rule="evenodd" d="M550.694 159.074L305.586 645.847C309.238 646.808 312.898 647.693 316.563 648.506L559.367 166.309C556.531 163.849 553.641 161.436 550.694 159.074" fill="#2CC57A"/>
<path fill-rule="evenodd" clip-rule="evenodd" d="M533.48 145.679L284.774 639.596C288.292 640.813 291.821 641.96 295.359 643.035L542.545 152.134C539.575 149.932 536.552 147.781 533.48 145.679" fill="#2CC57A"/>
<path fill-rule="evenodd" clip-rule="evenodd" d="M514.461 134.497L263.957 631.987C267.348 633.45 270.751 634.843 274.167 636.169L523.901 140.21C520.802 138.254 517.655 136.35 514.461 134.497" fill="#2CC57A"/>
<path fill-rule="evenodd" clip-rule="evenodd" d="M500.053 125.206C498.821 124.586 497.586 123.977 496.35 123.376L245.423 621.704C246.642 622.34 247.867 622.969 249.099 623.59C251.15 624.622 253.208 625.626 255.271 626.606L506.152 128.369C504.136 127.295 502.104 126.239 500.053 125.206" fill="#2CC57A"/>
<path fill-rule="evenodd" clip-rule="evenodd" d="M476.521 116.431L226.696 612.571C229.811 614.496 232.972 616.371 236.181 618.193L486.686 120.703C483.311 119.21 479.922 117.787 476.521 116.431" fill="#2CC57A"/>
<path fill-rule="evenodd" clip-rule="evenodd" d="M457.15 107.811L209.422 599.787C212.409 601.958 215.445 604.081 218.533 606.152L467.688 111.341C464.186 110.093 460.673 108.917 457.15 107.811" fill="#2CC57A"/>
<path fill-rule="evenodd" clip-rule="evenodd" d="M435.473 103.661L192.117 586.955C194.971 589.381 197.878 591.76 200.841 594.088L446.398 106.422C442.764 105.428 439.121 104.509 435.473 103.661" fill="#2CC57A"/>
<path fill-rule="evenodd" clip-rule="evenodd" d="M413.801 99.1199L175.763 571.85C178.474 574.548 181.247 577.198 184.077 579.799L425.137 101.065C421.361 100.341 417.582 99.6913 413.801 99.1199" fill="#2CC57A"/>
<path fill-rule="evenodd" clip-rule="evenodd" d="M391.19 96.4388L160.346 554.886C162.902 557.878 165.522 560.826 168.211 563.724L402.975 97.4946C399.045 97.0606 395.117 96.7107 391.19 96.4388" fill="#2CC57A"/>
<path fill-rule="evenodd" clip-rule="evenodd" d="M367.63 96.5229L146.306 536.062C148.693 539.376 151.15 542.647 153.684 545.869L379.902 96.6094C375.805 96.4922 371.714 96.4661 367.63 96.5229" fill="#2CC57A"/>
<path fill-rule="evenodd" clip-rule="evenodd" d="M342.677 97.6191L132.805 514.414C134.994 518.095 137.269 521.732 139.628 525.322L355.503 96.6055C351.214 96.8478 346.937 97.1865 342.677 97.6191" fill="#2CC57A"/>
<path fill-rule="evenodd" clip-rule="evenodd" d="M317.569 102.529L121.167 492.573C123.12 496.692 125.174 500.769 127.327 504.799L331.059 100.197C326.539 100.868 322.041 101.646 317.569 102.529" fill="#2CC57A"/>
<path fill-rule="evenodd" clip-rule="evenodd" d="M289.664 109.488L110.618 465.064C112.28 469.715 114.065 474.327 115.97 478.894L303.961 105.553C299.158 106.742 294.39 108.054 289.664 109.488" fill="#2CC57A"/>
<path fill-rule="evenodd" clip-rule="evenodd" d="M259.633 121.052L101.24 435.613C102.498 440.994 103.914 446.339 105.486 451.64L275.037 114.919C269.842 116.813 264.705 118.859 259.633 121.052" fill="#2CC57A"/>
<path fill-rule="evenodd" clip-rule="evenodd" d="M228.16 138.218L96.9218 398.852C97.5586 405.323 98.4214 411.768 99.5082 418.174L245.224 128.79C239.43 131.731 233.739 134.876 228.16 138.218" fill="#2CC57A"/>
<path fill-rule="evenodd" clip-rule="evenodd" d="M189.623 166.675L96.05 352.507C95.397 361.15 95.1549 369.795 95.3195 378.416L210.003 150.66C202.979 155.661 196.178 161.004 189.623 166.675" fill="#2CC57A"/>
<path fill-rule="evenodd" clip-rule="evenodd" d="M125.62 249.791C114.343 272.187 106.211 295.302 101.053 318.593L166.265 189.085C150.625 207.098 136.897 227.396 125.62 249.791" fill="#2CC57A"/>
</g>
</svg>
