<svg width="450" height="443" viewBox="0 0 450 443" fill="none" xmlns="http://www.w3.org/2000/svg">
<g opacity="0.0453307">
<path fill-rule="evenodd" clip-rule="evenodd" d="M100.602 355.835C104.641 359.579 108.866 363.118 113.256 366.444L398.084 273.898C399.681 268.626 401.018 263.28 402.086 257.877L100.602 355.835Z" fill="#70D1B7"/>
<path fill-rule="evenodd" clip-rule="evenodd" d="M68.0557 310.683C70.4229 314.898 72.9679 318.98 75.6776 322.927L401.956 216.913C401.828 212.127 401.488 207.328 400.925 202.527L68.0557 310.683Z" fill="#70D1B7"/>
<path fill-rule="evenodd" clip-rule="evenodd" d="M124.186 373.408C129.415 376.841 134.841 379.992 140.436 382.848L386.687 302.836C389.536 297.237 392.073 291.499 394.286 285.647L124.186 373.408Z" fill="#70D1B7"/>
<path fill-rule="evenodd" clip-rule="evenodd" d="M153.477 389.125C160.676 392.096 168.103 394.603 175.706 396.623L367.202 334.402C372.166 328.299 376.701 321.905 380.779 315.27L153.477 389.125Z" fill="#70D1B7"/>
<path fill-rule="evenodd" clip-rule="evenodd" d="M64.8819 145.583L305.499 67.4018C299.054 64.2596 292.396 61.5053 285.564 59.1587L76.1649 127.197C72.0171 133.111 68.2495 139.252 64.8819 145.583Z" fill="#70D1B7"/>
<path fill-rule="evenodd" clip-rule="evenodd" d="M191.969 400.802C205.015 402.784 218.437 403.391 232.009 402.513L322.26 373.188C333.757 365.922 344.259 357.541 353.648 348.269L191.969 400.802Z" fill="#70D1B7"/>
<path fill-rule="evenodd" clip-rule="evenodd" d="M59.6641 291.329C61.3512 295.744 63.2188 300.046 65.2553 304.232L403.204 194.426C402.391 189.842 401.372 185.264 400.142 180.701L59.6641 291.329Z" fill="#70D1B7"/>
<path fill-rule="evenodd" clip-rule="evenodd" d="M82.1055 334.507C85.2403 338.501 88.5536 342.335 92.0332 346.002L403.238 244.885C403.898 239.874 404.325 234.824 404.514 229.751L82.1055 334.507Z" fill="#70D1B7"/>
<path fill-rule="evenodd" clip-rule="evenodd" d="M107.905 89.5453C99.6984 96.2957 92.1687 103.679 85.379 111.585L269.884 51.6358C259.744 49.2309 249.312 47.6831 238.705 47.0459L107.905 89.5453Z" fill="#70D1B7"/>
<mask id="mask0_826_24436" style="mask-type:alpha" maskUnits="userSpaceOnUse" x="135" y="45" width="70" height="27">
<path fill-rule="evenodd" clip-rule="evenodd" d="M135.05 67.0566L202.575 45.1164L204.12 49.8717L136.595 71.8119L135.05 67.0566Z" fill="white"/>
</mask>
<g mask="url(#mask0_826_24436)">
<path fill-rule="evenodd" clip-rule="evenodd" d="M136.595 71.812L204.12 49.8718C192.203 50.2976 180.379 52.3284 168.812 56.0865C157.246 59.8446 146.486 65.1517 136.595 71.812Z" fill="#70D1B7"/>
</g>
<path fill-rule="evenodd" clip-rule="evenodd" d="M59.3605 159.995C56.9248 165.489 54.7835 171.099 52.9444 176.8L334.457 85.3309C329.618 81.7995 324.589 78.5198 319.388 75.5066L59.3605 159.995Z" fill="#70D1B7"/>
<path fill-rule="evenodd" clip-rule="evenodd" d="M46.452 214.659C46.0412 219.6 45.8551 224.571 45.9024 229.558L372.115 123.565C369.222 119.502 366.149 115.591 362.913 111.835L46.452 214.659Z" fill="#70D1B7"/>
<path fill-rule="evenodd" clip-rule="evenodd" d="M45.958 240.055C46.2961 244.779 46.8462 249.51 47.6124 254.238L383.335 145.155C381.176 140.879 378.84 136.729 376.337 132.708L45.958 240.055Z" fill="#70D1B7"/>
<mask id="mask1_826_24436" style="mask-type:alpha" maskUnits="userSpaceOnUse" x="50" y="156" width="346" height="125">
<path fill-rule="evenodd" clip-rule="evenodd" d="M50.6787 266.91L391.157 156.282L395.483 169.597L55.0049 280.225L50.6787 266.91Z" fill="white"/>
</mask>
<g mask="url(#mask1_826_24436)">
<path fill-rule="evenodd" clip-rule="evenodd" d="M51.3543 266.691C52.3647 271.216 53.5819 275.73 55.0049 280.225L395.483 169.597C393.993 165.124 392.323 160.757 390.481 156.502L51.3543 266.691Z" fill="#70D1B7"/>
</g>
<path fill-rule="evenodd" clip-rule="evenodd" d="M50.1573 188.22C48.8679 193.407 47.828 198.657 47.046 203.952L355.188 103.83C351.443 100.006 347.517 96.3706 343.424 92.9318L50.1573 188.22Z" fill="#70D1B7"/>
</g>
</svg>
