<svg width="43" height="29" viewBox="0 0 43 29" fill="none" xmlns="http://www.w3.org/2000/svg">
<path d="M16.6243 2H21.0538H26.4394C31.4127 2 35.8707 5.06779 37.6475 9.71295L40.9233 18.2773C42.0958 21.3428 40.7891 24.8008 37.8822 26.3248C34.9729 27.85 31.3824 26.9549 29.5295 24.2424L29.0586 23.5531C27.6773 21.5309 25.3865 20.3214 22.9376 20.3214H21.0538H19.815C17.4596 20.3214 15.2902 21.6013 14.1512 23.663C12.4951 26.6604 8.79036 27.8486 5.69988 26.3734L5.55812 26.3057C2.42349 24.8094 0.972555 21.1495 2.23049 17.9118L5.43891 9.65409C7.23171 5.03982 11.674 2 16.6243 2Z" stroke="#26D07C" stroke-width="3"/>
<path d="M9.94336 12.3498H18.0787M14.011 8.2998V12.3498V16.3998" stroke="#26D07C" stroke-width="3"/>
<ellipse cx="28.7958" cy="9.30719" rx="1.52819" ry="1.52155" fill="#26D07C"/>
<ellipse cx="28.7958" cy="15.3931" rx="1.52819" ry="1.52155" fill="#26D07C"/>
<ellipse cx="25.7401" cy="12.3502" rx="1.52819" ry="1.52155" fill="#26D07C"/>
<ellipse cx="31.8524" cy="12.3502" rx="1.52819" ry="1.52155" fill="#26D07C"/>
</svg>
