<svg width="29" height="32" viewBox="0 0 29 32" fill="none" xmlns="http://www.w3.org/2000/svg">
<path d="M1.50488 13.1538C1.50488 11.2208 3.07189 9.65381 5.00488 9.65381H23.7452C25.6782 9.65381 27.2452 11.2208 27.2452 13.1538V16.1923H1.50488V13.1538Z" stroke="#26D07C" stroke-width="3"/>
<path d="M3.10156 16.8076H25.6485V26.9999C25.6485 28.9329 24.0815 30.4999 22.1485 30.4999H6.60156C4.66856 30.4999 3.10156 28.9329 3.10156 26.9999V16.8076Z" stroke="#26D07C" stroke-width="3"/>
<path d="M13.8663 3.48136C13.8663 5.68673 13.8663 6.23807 13.8663 8.44345C11.0975 8.44345 11.0975 8.44345 8.8825 8.44345C7.50628 7.0732 7.50628 4.8516 8.8825 3.48136C10.2587 2.11112 12.49 2.11112 13.8663 3.48136Z" stroke="#26D07C" stroke-width="3"/>
<path d="M19.4548 8.44313C17.2398 8.44313 16.686 8.44313 14.471 8.44313C14.471 5.68641 14.471 5.68641 14.471 3.48104C15.8472 2.1108 18.0785 2.1108 19.4548 3.48104C20.831 4.85128 20.831 7.07289 19.4548 8.44313Z" stroke="#26D07C" stroke-width="3"/>
<path d="M14.375 8.94873V31.2051" stroke="#26D07C" stroke-width="3"/>
</svg>
