<svg width="31" height="31" viewBox="0 0 31 31" fill="none" xmlns="http://www.w3.org/2000/svg">
<circle cx="15.5" cy="15.5" r="14" stroke="#26D07C" stroke-width="3"/>
<path d="M14.0736 21.656C13.2566 21.527 12.5328 21.3263 11.9021 21.054C11.2858 20.7673 10.7841 20.5022 10.3971 20.2585L11.5581 17.743C11.6871 17.829 11.8878 17.958 12.1601 18.13C12.4468 18.2877 12.755 18.4453 13.0846 18.603C13.4286 18.7607 13.7798 18.904 14.1381 19.033C14.5108 19.1477 14.8476 19.205 15.1486 19.205C15.6933 19.205 16.0875 19.0903 16.3311 18.861C16.5748 18.6317 16.6966 18.3522 16.6966 18.0225C16.6966 17.6068 16.5246 17.2987 16.1806 17.098C15.8366 16.8973 15.3421 16.6752 14.6971 16.4315C13.4645 15.9728 12.5256 15.421 11.8806 14.776C11.2356 14.1167 10.9131 13.2567 10.9131 12.196C10.9131 11.766 10.992 11.3718 11.1496 11.0135C11.3073 10.6552 11.5295 10.3327 11.8161 10.046C12.1028 9.745 12.4325 9.49417 12.8051 9.2935C13.1921 9.09283 13.615 8.94233 14.0736 8.842V7.079H16.8041V8.799C17.5638 8.91367 18.2446 9.09283 18.8466 9.3365C19.463 9.58017 19.9575 9.82383 20.3301 10.0675L19.1261 12.3895C18.9255 12.2892 18.6961 12.1745 18.4381 12.0455C18.1945 11.9022 17.9293 11.7732 17.6426 11.6585C17.356 11.5438 17.0621 11.4507 16.7611 11.379C16.4601 11.293 16.1663 11.25 15.8796 11.25C15.464 11.25 15.1415 11.3217 14.9121 11.465C14.6971 11.594 14.5896 11.8018 14.5896 12.0885C14.5896 12.4325 14.7831 12.7335 15.1701 12.9915C15.5571 13.2352 16.2021 13.529 17.1051 13.873C18.2375 14.3173 19.0616 14.8477 19.5776 15.464C20.108 16.0803 20.3731 16.8758 20.3731 17.8505C20.3731 18.2805 20.2943 18.7033 20.1366 19.119C19.979 19.5347 19.7496 19.9145 19.4486 20.2585C19.1476 20.6025 18.775 20.9035 18.3306 21.1615C17.8863 21.4052 17.3775 21.5772 16.8041 21.6775V23.7845H14.0736V21.656Z" fill="#26D07C"/>
</svg>
