<?xml version="1.0" encoding="utf-8"?>
<!-- Generator: Adobe Illustrator 26.2.1, SVG Export Plug-In . SVG Version: 6.00 Build 0)  -->
<svg version="1.1" id="圖層_1" xmlns="http://www.w3.org/2000/svg" xmlns:xlink="http://www.w3.org/1999/xlink" x="0px" y="0px"
	 viewBox="0 0 33.3 34" style="enable-background:new 0 0 33.3 34;" xml:space="preserve">
<style type="text/css">
	.st0{fill:none;stroke:#26D07C;stroke-width:3;stroke-linecap:round;stroke-linejoin:round;}
</style>
<path class="st0" d="M30.4,17.6L28,13.4c-0.6-1-1.8-1.3-2.8-0.7c-1,0.6-1.3,1.8-0.7,2.8L23.1,13c-0.6-1-1.8-1.3-2.8-0.7
	c-1,0.6-1.3,1.8-0.7,2.8l-1.2-2.1c-0.6-1-1.8-1.3-2.8-0.7c-1,0.6-1.3,1.8-0.7,2.8L11,8.2c-0.6-1.1-2-1.4-3-0.8c-1.1,0.6-1.4,2-0.8,3
	l7.4,12.9l-3.6-3.3c-0.9-0.8-2.3-0.6-3.1,0.3l-0.3,0.3c-0.8,0.9-0.6,2.4,0.3,3.1l6.4,5.3c0,0,6.8,7.1,14.7,0.4
	C30.4,28.2,33.3,23.5,30.4,17.6L30.4,17.6z"/>
<path class="st0" d="M6.1,15.3c-1.4-0.6-2.7-1.6-3.6-3.1C0.6,8.9,1.7,4.6,5.1,2.7c3.3-1.9,7.6-0.8,9.5,2.6c0.6,1.1,0.9,2.3,0.9,3.5"
	/>
</svg>
