<svg width="216" height="157" viewBox="0 0 216 157" xmlns="http://www.w3.org/2000/svg" xmlns:xlink="http://www.w3.org/1999/xlink">
    <defs>
        <path d="m157.836 90.85 18.031 18.032 18.031-18.031a6 6 0 1 1 8.486 8.485l-18.032 18.031 18.032 18.031a6 6 0 1 1-8.486 8.486l-18.03-18.032-18.032 18.032a6 6 0 1 1-8.485-8.486l18.031-18.03-18.031-18.032a6 6 0 1 1 8.485-8.485z" id="c"/>
        <path d="m26.772 8.302.541.011c2.16.083 4.288.644 6.513 1.612l.687.31c4.996 2.327 9.177 5.96 12.961 9.927.157.21 3.004 3.949 8.13 4.202l.426.021c5.118.267 10.08.805 14.688 5.543l.16.166c4.655 4.977 7.896 17.071-3.387 27.388l-.373.336c-11.343 10.015-25.167 6.361-25.167 6.361-.097-.012-1.481-.195-4.896-1.136l-.338-.086c-3.34-.778-5.458.874-5.458.874l-.01.008c-.218.169-3.857 2.975-6.634 3.755l-.236.059c-2.569.555-1.61-2.634-1.61-2.635l.094-.301c.67-2.106 1.665-4.19.699-6.38l-.148-.302c-.851-1.587-2.724-2.846-4.293-3.61l-.055-.028c-1.319-.72-11.81-8.426-12.206-20.734l-.011-.474c-.15-9.82 4.862-20.475 14.57-23.921 1.857-.659 3.619-.967 5.353-.966z" id="d"/>
        <radialGradient cx="50%" cy="50%" fx="50%" fy="50%" r="50%" gradientTransform="matrix(0 1 -.98462 0 .992 0)" id="a">
            <stop stop-color="#FFF" offset="0%"/>
            <stop stop-color="#94E4B3" offset="47.43%"/>
            <stop stop-color="#26D07C" offset="100%"/>
        </radialGradient>
        <filter x="-26.5%" y="-26.5%" width="153.1%" height="153.1%" filterUnits="objectBoundingBox" id="b">
            <feOffset in="SourceAlpha" result="shadowOffsetOuter1"/>
            <feGaussianBlur stdDeviation="5" in="shadowOffsetOuter1" result="shadowBlurOuter1"/>
            <feColorMatrix values="0 0 0 0 0.580392157 0 0 0 0 0.894117647 0 0 0 0 0.701960784 0 0 0 1 0" in="shadowBlurOuter1"/>
        </filter>
    </defs>
    <g fill="none" fill-rule="evenodd">
        <g transform="translate(36 6.322)">
            <circle fill="#94E4B3" opacity=".199" cx="72" cy="72" r="72"/>
            <circle fill="url(#a)" opacity=".198" cx="72" cy="72" r="58"/>
        </g>
        <g transform="translate(.35 .34)">
            <use fill="#000" filter="url(#b)" xlink:href="#c"/>
            <use fill="#FFF" xlink:href="#c"/>
        </g>
        <g transform="translate(68 37.322)">
            <mask id="e" fill="#fff">
                <use xlink:href="#d"/>
            </mask>
            <use fill="#26D07C" transform="rotate(-16 41.003 38.01)" xlink:href="#d"/>
            <path d="M49.374 16.457c15.947 13.838 14.35 29.83-4.795 47.977s-5.967 27.54 39.534 28.177l3.18-31.985 5.34-44.973-17.665-9.857-25.594 10.661z" fill="#000" opacity=".054" mask="url(#e)"/>
        </g>
        <path d="M94.96 69.771c0 3.786-3.104 6.854-6.936 6.854-3.83 0-6.935-3.068-6.935-6.854 0-3.785 3.105-6.853 6.935-6.853 3.832 0 6.937 3.068 6.937 6.853M108.833 72.818c0 3.785-3.105 6.853-6.937 6.853-3.83 0-6.935-3.068-6.935-6.853 0-3.785 3.105-6.854 6.935-6.854 3.832 0 6.937 3.069 6.937 6.854" fill="#FEFEFE"/>
        <path d="M91.878 70.533c0 1.682-1.38 3.046-3.083 3.046-1.702 0-3.082-1.364-3.082-3.046 0-1.682 1.38-3.046 3.082-3.046 1.703 0 3.083 1.364 3.083 3.046M105.75 73.58c0 1.681-1.38 3.045-3.083 3.045-1.702 0-3.082-1.364-3.082-3.046 0-1.682 1.38-3.046 3.082-3.046 1.703 0 3.083 1.364 3.083 3.046" fill="#050101"/>
        <g fill="#26D07C">
            <path d="M54.162 46.294a4.12 4.12 0 0 1 1.508-2.86l.191-.15a4.053 4.053 0 0 1 2.892-.775c1.143.123 2.097.645 2.835 1.55a4.114 4.114 0 0 1 .914 3.103 4.356 4.356 0 0 1-.373 1.375 4.095 4.095 0 0 1-1.13 1.444 4.087 4.087 0 0 1-3.064.937 4.086 4.086 0 0 1-2.82-1.52c-.738-.906-1.058-1.95-.953-3.104zM33.017 20.507c.161-1.066.737-2.015 1.71-2.82 1.433-1.181 3.624-1.583 5.746.706 1.234 1.332 3.857 5.346 6.576 9.469l.511.774c1.79 2.708 3.585 5.393 5.022 7.328l2.428 3.196c.298.364.44.818.395 1.277-.02.207-.075.406-.164.599-.152.327-.405.635-.764.931-1.312 1.078-2.362.398-2.652.164l-.104-.084a152.233 152.233 0 0 0-5.144-5.692c-2.777-2.929-12.055-12.002-12.64-12.717-.77-.947-1.087-2.029-.92-3.131zM66.91 38.613c.267-1.027.858-1.86 1.714-2.422l.22-.134.227-.122a3.905 3.905 0 0 1 2.919-.234c1.09.328 1.93 1.017 2.497 2.046a4.228 4.228 0 0 1 .376 3.232c-.133.48-.33.912-.588 1.291-.34.5-.786.91-1.335 1.224a3.936 3.936 0 0 1-3.13.372c-1.074-.314-1.934-1.01-2.486-2.013-.567-1.03-.707-2.12-.415-3.24zM50.625 9.293c.332-1.025 1.047-1.858 2.124-2.478 1.586-.909 3.645-1.305 6.12-1.176 2.41.12 4.674.723 6.728 1.79 2.12 1.104 3.698 2.576 4.687 4.375 1.21 2.199 1.812 4.348 1.786 6.387-.02 1.96-.786 4.241-2.337 6.96l-.573.986-.263.477-.224.427-.186.379-.152.334-.122.29-.095.252-.07.213-.07.255-.025.13-.008.055a2.48 2.48 0 0 0 .218 1.4l.1.196.643 1.167a1.792 1.792 0 0 1-.084 1.897c-.201.296-.498.555-.895.783-1.244.71-2.089.177-2.458-.168l-.105-.106-.126-.146-2.648-4.809c-.672-1.222-.947-2.53-.815-3.885.118-1.206.721-2.802 1.844-4.868l.217-.393c.115-.208.224-.408.325-.6l.284-.55.246-.503c.076-.16.145-.312.21-.457l.175-.414.146-.372.061-.17.105-.314.08-.277.059-.242.04-.21.024-.18c.089-.845-.081-1.642-.519-2.436-.803-1.46-1.67-2.31-2.575-2.532-.944-.227-2.22.114-3.787 1.015-.424.24-.907.604-1.44 1.083-.587.506-1.104.887-1.555 1.145-.799.46-1.713.544-2.644.245a3.593 3.593 0 0 1-2.07-1.693c-.59-1.076-.72-2.202-.376-3.262z"/>
        </g>
    </g>
</svg>
