<svg width="216" height="154" viewBox="0 0 216 154" xmlns="http://www.w3.org/2000/svg" xmlns:xlink="http://www.w3.org/1999/xlink">
    <defs>
        <path d="M140.033 78.924a5.593 5.593 0 0 1 7.382-.466l.527.466 42.778 42.778a5.593 5.593 0 0 1 .465 7.382l-.465.526-22.692 24.038a5.592 5.592 0 0 1-8.374-7.382l.465-.527 18.737-20.084-38.823-38.822a5.593 5.593 0 0 1-.465-7.383l.465-.526z" id="c"/>
        <path d="m26.772 8.302.541.011c2.16.083 4.288.644 6.513 1.612l.687.31c4.996 2.327 9.177 5.96 12.961 9.927.157.21 3.004 3.949 8.13 4.202l.426.021c5.118.267 10.08.805 14.688 5.543l.16.166c4.655 4.977 7.896 17.071-3.387 27.388l-.373.336c-11.343 10.015-25.167 6.361-25.167 6.361-.097-.012-1.481-.195-4.896-1.136l-.338-.086c-3.34-.778-5.458.874-5.458.874l-.01.008c-.218.169-3.857 2.975-6.634 3.755l-.236.059c-2.569.555-1.61-2.634-1.61-2.635l.094-.301c.67-2.106 1.665-4.19.699-6.38l-.148-.302c-.851-1.587-2.724-2.846-4.293-3.61l-.055-.028c-1.319-.72-11.81-8.426-12.206-20.734l-.011-.474c-.15-9.82 4.862-20.475 14.57-23.921 1.857-.659 3.619-.967 5.353-.966z" id="d"/>
        <radialGradient cx="50%" cy="50%" fx="50%" fy="50%" r="50%" gradientTransform="matrix(0 1 -.98462 0 .992 0)" id="a">
            <stop stop-color="#FFF" offset="0%"/>
            <stop stop-color="#94E4B3" offset="47.43%"/>
            <stop stop-color="#26D07C" offset="100%"/>
        </radialGradient>
        <filter x="-27.8%" y="-19.2%" width="155.6%" height="138.5%" filterUnits="objectBoundingBox" id="b">
            <feOffset in="SourceAlpha" result="shadowOffsetOuter1"/>
            <feGaussianBlur stdDeviation="5" in="shadowOffsetOuter1" result="shadowBlurOuter1"/>
            <feColorMatrix values="0 0 0 0 0.580392157 0 0 0 0 0.894117647 0 0 0 0 0.701960784 0 0 0 1 0" in="shadowBlurOuter1"/>
        </filter>
    </defs>
    <g fill="none" fill-rule="evenodd">
        <g transform="translate(36 5.322)">
            <circle fill="#94E4B3" opacity=".199" cx="72" cy="72" r="72"/>
            <circle fill="url(#a)" opacity=".198" cx="72" cy="72" r="58"/>
        </g>
        <g fill-rule="nonzero" transform="rotate(90 165.588 116.498)">
            <use fill="#000" filter="url(#b)" xlink:href="#c"/>
            <use fill="#FFF" xlink:href="#c"/>
        </g>
        <g transform="translate(68 36.322)">
            <mask id="e" fill="#fff">
                <use xlink:href="#d"/>
            </mask>
            <use fill="#26D07C" transform="rotate(-16 41.003 38.01)" xlink:href="#d"/>
            <path d="M49.374 16.457c15.947 13.838 14.35 29.83-4.795 47.977s-5.967 27.54 39.534 28.177l3.18-31.985 5.34-44.973-17.665-9.857-25.594 10.661z" fill="#000" opacity=".054" mask="url(#e)"/>
        </g>
        <path d="M94.96 68.771c0 3.786-3.104 6.854-6.936 6.854-3.83 0-6.935-3.068-6.935-6.854 0-3.785 3.105-6.853 6.935-6.853 3.832 0 6.937 3.068 6.937 6.853M108.833 71.818c0 3.785-3.105 6.853-6.937 6.853-3.83 0-6.935-3.068-6.935-6.853 0-3.785 3.105-6.854 6.935-6.854 3.832 0 6.937 3.069 6.937 6.854" fill="#FEFEFE"/>
        <path d="M91.878 69.533c0 1.682-1.38 3.046-3.083 3.046-1.702 0-3.082-1.364-3.082-3.046 0-1.682 1.38-3.046 3.082-3.046 1.703 0 3.083 1.364 3.083 3.046M105.75 72.58c0 1.681-1.38 3.045-3.083 3.045-1.702 0-3.082-1.364-3.082-3.046 0-1.682 1.38-3.046 3.082-3.046 1.703 0 3.083 1.364 3.083 3.046" fill="#050101"/>
        <g fill="#26D07C">
            <path d="m38.727 2-9.288 9.794 29.442 22.357 2.543-2.892zM29.33 31.59l-2.906 9.944 23.382 3.045 1.223-3.28z"/>
        </g>
    </g>
</svg>
