<svg id="圖層_1" data-name="圖層 1" xmlns="http://www.w3.org/2000/svg" viewBox="0 0 11 11"><path d="M11,5.5c0-1.17-1.4-1.92-3.21-2.26C7.45,1.43,6.68,0,5.5,0S3.55,1.43,3.21,3.24C1.4,3.58,0,4.33,0,5.5S1.41,7.44,3.21,7.79C3.56,9.59,4.33,11,5.5,11S7.44,9.59,7.79,7.79C9.59,7.44,11,6.67,11,5.5ZM5.5,1.2c.3,0,.75.68,1,1.88a14.16,14.16,0,0,0-2.06,0C4.75,1.88,5.2,1.2,5.5,1.2ZM6.8,5.5a11.67,11.67,0,0,1-.07,1.23A11.67,11.67,0,0,1,5.5,6.8a11.67,11.67,0,0,1-1.23-.07A11.67,11.67,0,0,1,4.2,5.5a11.67,11.67,0,0,1,.07-1.23A11.67,11.67,0,0,1,5.5,4.2a11.67,11.67,0,0,1,1.23.07A11.67,11.67,0,0,1,6.8,5.5Zm-5.6,0c0-.29.67-.74,1.84-1,0,.33,0,.68,0,1s0,.69,0,1C1.87,6.24,1.2,5.79,1.2,5.5ZM5.5,9.8c-.29,0-.74-.67-1-1.84.33,0,.68,0,1,0s.69,0,1,0C6.24,9.13,5.79,9.8,5.5,9.8ZM8,6.53c0-.34,0-.69,0-1s0-.69,0-1c1.17.28,1.84.73,1.84,1S9.13,6.24,8,6.53Z" fill="#fff"/></svg>