<svg id="圖層_1" data-name="圖層 1" xmlns="http://www.w3.org/2000/svg" viewBox="0 0 24 24"><path id="a" d="M12,1.15c3.61,0,5.45,2.23,5.92,5.76h.52A2.23,2.23,0,0,1,20.66,9v.16l1.12,11.5a2.24,2.24,0,0,1-2.07,2.2H4.45a2.23,2.23,0,0,1-2.23-2v-.2L3.33,9.15A2.26,2.26,0,0,1,5.41,6.91h.67C6.55,3.37,8.38,1.15,12,1.15Zm6.05,10.52a1,1,0,0,1-.94,1.05,1,1,0,0,1-1.06-.94h0V8.91H8v2.76a1,1,0,0,1-.94,1.05A1,1,0,0,1,6,11.78H6V8.91H5.57a.26.26,0,0,0-.23.17v.26L4.22,20.7a.3.3,0,0,0,.17.18H19.55a.23.23,0,0,0,.21-.13v-.06L18.67,9.34V9.15a.22.22,0,0,0-.21-.24H18v2.76ZM12,3.15c-2.3,0-3.51,1.32-3.89,3.76h7.8C15.51,4.47,14.29,3.15,12,3.15Z" fill-rule="evenodd"/></svg>