<svg width="24" height="24" viewBox="0 0 24 24" xmlns="http://www.w3.org/2000/svg">
    <path d="M17.357 15.857A2.145 2.145 0 0 1 15.214 18H8.786a2.145 2.145 0 0 1-2.143-2.143V10.5h1.071v1.071a1.072 1.072 0 0 0 2.143 0V10.5h4.286v1.071a1.072 1.072 0 0 0 2.143 0V10.5h1.071v5.357zm-7.5-8.571a2.143 2.143 0 0 1 4.286 0v1.071H9.857V7.286zm8.572 1.071h-2.143V7.286a4.286 4.286 0 0 0-8.572 0v1.071H5.571c-.589 0-1.071.482-1.071 1.072v6.428a4.298 4.298 0 0 0 4.286 4.286h6.428a4.298 4.298 0 0 0 4.286-4.286V9.43c0-.59-.482-1.072-1.071-1.072z" fill="#26D07C" fill-rule="evenodd"/>
</svg>
