<svg id="圖層_1" data-name="圖層 1" xmlns="http://www.w3.org/2000/svg" viewBox="0 0 37 37"><path d="M31.66,4.45a8,8,0,0,0-3.94-.94,11.64,11.64,0,0,0-4,1l-.43.16h0A6.85,6.85,0,0,1,21.86,5a5.53,5.53,0,0,1-3.53-.74A2.11,2.11,0,0,0,18,4.12L17.72,4,17,3.65C1.3-3.63.08,11.79.08,11.79s-1.91,14.65,13,17.66h0a3,3,0,0,1,2.36,2.68c.1,2.52.37,6,4.16-.79a4,4,0,0,1,3.19-1.59h0a21.94,21.94,0,0,0,2.26-.43c11-2.77,11.87-13.58,11.87-13.58h0c0-.24.94-8.16-5.28-11.28M26.22,9.67l0,0c-.54.32-6.32,3.7-11.67-1.07A1.59,1.59,0,0,1,14,7.79a1.66,1.66,0,0,1,.31-1.38,1.53,1.53,0,0,1,2.1-.18,8.25,8.25,0,0,0,8.35.69,1.46,1.46,0,0,1,2,.63,1.61,1.61,0,0,1-.6,2.12" fill="#26d07c" fill-rule="evenodd"/></svg>