<svg id="圖層_1" data-name="圖層 1" xmlns="http://www.w3.org/2000/svg" viewBox="0 0 24 24">
  <g style="isolation: isolate">
    <path d="M12,20.4,11.46,20a92.33,92.33,0,0,1-7.18-5.91c-2.14-2.23-3.2-5.85-.53-8.61A5.1,5.1,0,0,1,7.46,3.83h0a6.58,6.58,0,0,1,4.51,2,6.56,6.56,0,0,1,4.53-2h0a5.14,5.14,0,0,1,3.71,1.64c2.68,2.77,1.63,6.38-.47,8.57l0,0A90.49,90.49,0,0,1,12.55,20ZM7.46,5.67A3.24,3.24,0,0,0,5.07,6.75c-2.09,2.16-.67,4.8.5,6,2,1.85,4.2,3.66,6.43,5.34,2.24-1.68,4.41-3.48,6.46-5.36,1.16-1.22,2.55-3.83.45-6a3.24,3.24,0,0,0-2.38-1.08h0a4.87,4.87,0,0,0-3.34,1.61L12,8.49l-1.18-1.2A4.86,4.86,0,0,0,7.47,5.67Z"/>
  </g>
</svg>
