<svg id="圖層_1" data-name="圖層 1" xmlns="http://www.w3.org/2000/svg" viewBox="0 0 24 24">
  <g style="isolation: isolate">
    <path d="M12,19l-.74-.56A65.4,65.4,0,0,1,5.86,14C4,12,3.29,9,5.44,6.74a4.36,4.36,0,0,1,3.19-1.4A5.3,5.3,0,0,1,12,6.66a5.37,5.37,0,0,1,3.38-1.32h0a4.34,4.34,0,0,1,3.17,1.4C20.71,9,20,12,18.2,13.91l-.05.06a69.17,69.17,0,0,1-5.4,4.44ZM8.61,7.84a1.9,1.9,0,0,0-1.38.63C6,9.78,6.87,11.42,7.6,12.18c1.38,1.25,2.87,2.5,4.4,3.67,1.52-1.17,3-2.41,4.43-3.7.72-.77,1.58-2.38.33-3.67a1.88,1.88,0,0,0-1.38-.64h0a3.13,3.13,0,0,0-2.1,1L12,10.18l-1.28-1.3a3.06,3.06,0,0,0-2.09-1Z"/>
  </g>
</svg>
