<svg id="圖層_1" data-name="圖層 1" xmlns="http://www.w3.org/2000/svg" viewBox="0 0 24 24"><path d="M18.32,21.75H5.62a2.88,2.88,0,0,1-2.87-2.87V6.18A2.88,2.88,0,0,1,5.62,3.31H13v1.5H5.62A1.37,1.37,0,0,0,4.25,6.18v12.7a1.37,1.37,0,0,0,1.37,1.37h12.7a1.37,1.37,0,0,0,1.37-1.37V11.47h1.5v7.41A2.87,2.87,0,0,1,18.32,21.75ZM8.11,17.32,12.6,16a.7.7,0,0,0,.32-.19L21.57,7.2a2.35,2.35,0,0,0,0-3.31l-1-1a2.34,2.34,0,0,0-3.3,0L8.66,11.58a.7.7,0,0,0-.19.32L7.18,16.39a.75.75,0,0,0,.19.73.74.74,0,0,0,.53.22ZM16.55,5.81,18.69,8,12,14.65,9,15.5l.85-3ZM18.36,4a.85.85,0,0,1,1.18,0l1,1a.83.83,0,0,1,0,1.18l-.75.75L17.61,4.75Z"/></svg>