<svg width="24" height="24" viewBox="0 0 24 24" xmlns="http://www.w3.org/2000/svg">
    <g fill="#26D07C" fill-rule="evenodd">
        <path d="M12.502 3.756h.01a8.59 8.59 0 0 0-3.065.45 8.475 8.475 0 0 0-5.223 10.793l.088.243c1.566 4.098 6.01 6.305 10.207 5.12l.17-.05 2.47.433c.455.077.922.03 1.338-.16l.141-.061c1.06-.508 1.557-1.834 1.06-2.972l-.326-.769.14-.22c.24-.396.447-.819.623-1.264.358-.895.555-1.85.575-2.82.156-4.672-3.526-8.586-8.208-8.723zm-.396 2.495.34.004c3.282.097 5.875 2.853 5.765 6.156a5.563 5.563 0 0 1-.4 1.964 5.487 5.487 0 0 1-.834 1.46l-.474.582.765 1.809-2.771-.486-.307.107a5.972 5.972 0 0 1-3.936-11.275 6.12 6.12 0 0 1 1.852-.321z" fill-rule="nonzero"/>
        <rect x="9" y="11" width="2.4" height="2.4" rx="1.2"/>
        <rect x="13" y="11" width="2.4" height="2.4" rx="1.2"/>
    </g>
</svg>
