<svg id="圖層_1" data-name="圖層 1" xmlns="http://www.w3.org/2000/svg" viewBox="0 0 12.14 12.14"><path d="M3.24,8l-2,2V8.94a.61.61,0,0,0-.61-.61A.61.61,0,0,0,0,8.94v2.59a.61.61,0,0,0,.61.61h2.6a.61.61,0,0,0,0-1.22H2.09l2-2a.6.6,0,0,0,0-.86.62.62,0,0,0-.87,0h0M2.09,1.22H3.21A.61.61,0,0,0,3.21,0H.61A.61.61,0,0,0,0,.61H0v2.6a.61.61,0,0,0,1.22,0V2.09l2,2a.62.62,0,0,0,.87,0,.62.62,0,0,0,0-.87l-2-2Zm9.44,7.11a.61.61,0,0,0-.61.61h0v1.12l-2-2A.61.61,0,0,0,8,8,.6.6,0,0,0,8,8.9H8l2,2H8.94a.61.61,0,0,0,0,1.22h2.59a.61.61,0,0,0,.61-.61h0V8.94a.61.61,0,0,0-.61-.61M8.9,4.11l2-2V3.2a.61.61,0,1,0,1.22,0h0V.61A.61.61,0,0,0,11.53,0H8.94a.61.61,0,0,0-.61.61.61.61,0,0,0,.61.61h1.12l-2,2a.63.63,0,0,0,0,.87.61.61,0,0,0,.86,0" fill-rule="evenodd"/></svg>