<svg id="圖層_1" data-name="圖層 1" xmlns="http://www.w3.org/2000/svg" viewBox="0 0 16.67 16.67">
  <path d="M13.38,14.33V7.14l-5-4.5-5,4.5v7.19h2.5V10.58a1.6,1.6,0,0,1,1.66-1.5H9.21a1.59,1.59,0,0,1,1.67,1.5v3.75Zm-4.17,0V10.58H7.54v3.75a1.58,1.58,0,0,1-1.66,1.5H3.38a1.59,1.59,0,0,1-1.67-1.5V8.64l-.25.22a.89.89,0,0,1-1.17.08A.69.69,0,0,1,.14,8L.2,7.88.29,7.8l7.5-6.75A.9.9,0,0,1,9,1.05l7.5,6.75a.71.71,0,0,1,0,1l-.08.07a.92.92,0,0,1-1.09,0L15,8.64v5.69a1.58,1.58,0,0,1-1.66,1.5h-2.5A1.59,1.59,0,0,1,9.21,14.33Z" fill="#040000" fill-rule="evenodd"/>
</svg>
