<svg id="圖層_1" data-name="圖層 1" xmlns="http://www.w3.org/2000/svg" viewBox="0 0 25 24">
  <g>
    <path d="M12.5,21a9,9,0,1,1,9-9A9,9,0,0,1,12.5,21Zm0-15.75A6.75,6.75,0,1,0,19.25,12,6.76,6.76,0,0,0,12.5,5.25Z" fill="#26d07c"/>
    <path d="M12.66,17.5a.64.64,0,0,0,.47-.19.59.59,0,0,0,.19-.47v-.57c0-.08,0-.12.1-.13a2.44,2.44,0,0,0,1.42-.9,2.58,2.58,0,0,0,.48-1.58,2.07,2.07,0,0,0-.14-.8,1.91,1.91,0,0,0-.38-.61,4.08,4.08,0,0,0-1.16-.82c-.4-.18-.79-.38-1.17-.58a1.43,1.43,0,0,1-.38-.31.62.62,0,0,1-.14-.39.73.73,0,0,1,.22-.59,1.09,1.09,0,0,1,.69-.18,1.6,1.6,0,0,1,.77.19,1,1,0,0,0,.49.13h.1a.74.74,0,0,0,.52-.25.81.81,0,0,0,.2-.53.63.63,0,0,0-.28-.55,3,3,0,0,0-1.23-.54.12.12,0,0,1-.11-.13V7.16a.59.59,0,0,0-.19-.47.67.67,0,0,0-.47-.19.7.7,0,0,0-.47.19.67.67,0,0,0-.19.47v.56a.13.13,0,0,1-.11.13,2.37,2.37,0,0,0-1.36.84A2.5,2.5,0,0,0,10,10.25a2,2,0,0,0,.66,1.5,5.6,5.6,0,0,0,.66.48l.72.39c.24.11.46.23.66.34a1.94,1.94,0,0,1,.48.39.64.64,0,0,1,.19.45.79.79,0,0,1-.24.63,1.21,1.21,0,0,1-.76.2,2.4,2.4,0,0,1-1.15-.31.91.91,0,0,0-.61-.09.73.73,0,0,0-.5.33A.83.83,0,0,0,10,15a.77.77,0,0,0,0,.15.68.68,0,0,0,.35.51,4.48,4.48,0,0,0,1.52.51c.07,0,.11.06.11.12v.51a.68.68,0,0,0,.19.47A.7.7,0,0,0,12.66,17.5Z" fill="#26d07c"/>
  </g>
</svg>
