<?xml version="1.0" encoding="utf-8"?>
<!-- Generator: Adobe Illustrator 25.4.1, SVG Export Plug-In . SVG Version: 6.00 Build 0)  -->
<svg version="1.1" id="圖層_1" xmlns="http://www.w3.org/2000/svg" xmlns:xlink="http://www.w3.org/1999/xlink" x="0px" y="0px"
	 viewBox="0 0 20 20" style="enable-background:new 0 0 20 20;" xml:space="preserve">
<path d="M10,0C4.5,0,0,4.5,0,10s4.5,10,10,10s10-4.5,10-10S15.5,0,10,0z M9.2,11.4V5.1c0-0.1,0.1-0.2,0.2-0.2l0,0h1.2
	c0.1,0,0.2,0.1,0.2,0.2v6.3c0,0.1-0.1,0.2-0.2,0.2H9.4C9.3,11.6,9.2,11.5,9.2,11.4L9.2,11.4z M11.2,13.9c0,0.7-0.6,1.2-1.3,1.2
	s-1.2-0.6-1.2-1.3s0.6-1.2,1.3-1.2C10.7,12.6,11.3,13.1,11.2,13.9C11.2,13.8,11.2,13.8,11.2,13.9z"/>
</svg>
