<?xml version="1.0" encoding="utf-8"?>
<!-- Generator: Adobe Illustrator 25.4.1, SVG Export Plug-In . SVG Version: 6.00 Build 0)  -->
<svg version="1.1" id="圖層_1" xmlns="http://www.w3.org/2000/svg" xmlns:xlink="http://www.w3.org/1999/xlink" x="0px" y="0px"
	 viewBox="0 0 40 41" style="enable-background:new 0 0 40 41;" xml:space="preserve">
<g>
	<path d="M34.9,12.5l0.3-0.3l-8.8-8.8l-1.8,1.8l6.5,6.5H8.8l6.5-6.5l-1.8-1.8l-8.8,8.8l0.3,0.3C4.4,13.1,4,13.9,4,14.9v19.5
		c0,1.8,1.5,3.2,3.2,3.2h25.5c1.8,0,3.2-1.5,3.2-3.2V14.9C36,13.9,35.6,13.1,34.9,12.5z M33.5,34.4c0,0.4-0.3,0.8-0.8,0.8H7.2
		c-0.4,0-0.8-0.3-0.8-0.8V14.9c0-0.4,0.3-0.8,0.8-0.8h25.5c0.4,0,0.8,0.3,0.8,0.8V34.4z"/>
	<path d="M23,16.4h-6c-1.8,0-3.2,1.5-3.2,3.2s1.5,3.2,3.2,3.2h6c1.8,0,3.2-1.5,3.2-3.2S24.8,16.4,23,16.4z M23,20.4h-6
		c-0.4,0-0.8-0.3-0.8-0.8s0.3-0.8,0.8-0.8h6c0.4,0,0.8,0.3,0.8,0.8S23.4,20.4,23,20.4z"/>
</g>
</svg>
