<svg id="圖層_1" data-name="圖層 1" xmlns="http://www.w3.org/2000/svg" viewBox="0 0 25 25">
  <g>
    <path d="M15.38,20.5H9.62A5.13,5.13,0,0,1,4.5,15.38V9.62A5.13,5.13,0,0,1,9.62,4.5h5.76A5.13,5.13,0,0,1,20.5,9.62v5.76A5.13,5.13,0,0,1,15.38,20.5ZM9.62,6.75A2.88,2.88,0,0,0,6.75,9.62v5.76a2.88,2.88,0,0,0,2.87,2.87h5.76a2.88,2.88,0,0,0,2.87-2.87V9.62a2.88,2.88,0,0,0-2.87-2.87Z" fill="#26d07c"/>
    <path d="M12,15.5H10a1,1,0,0,1,0-2h2a1,1,0,0,1,0,2Zm3-3H10a1,1,0,0,1,0-2h5a1,1,0,0,1,0,2Z" fill="#26d07c"/>
  </g>
</svg>
