<svg id="圖層_1" data-name="圖層 1" xmlns="http://www.w3.org/2000/svg" viewBox="0 0 25 25">
  <g>
    <path d="M10.31,18.88H5.92a1.15,1.15,0,0,1-.3-.89V6a2.11,2.11,0,0,1,.21-.88H10.5a1.12,1.12,0,0,0,0-2.24H5.83C4.45,2.88,3.38,4.25,3.38,6V18c0,1.75,1.07,3.12,2.45,3.12h4.48a1.12,1.12,0,0,0,0-2.24Z" fill="#26d07c"/>
    <path d="M20.2,10.85,16.34,7a1.12,1.12,0,0,0-1.59,1.59l.85.85L17,10.88H9a1.12,1.12,0,0,0,0,2.24h8L15.6,14.56l-.85.85A1.12,1.12,0,1,0,16.34,17l3.86-3.85a1.64,1.64,0,0,0,0-2.3Z" fill="#26d07c"/>
  </g>
</svg>
