<?xml version="1.0" encoding="utf-8"?>
<!-- Generator: Adobe Illustrator 26.0.1, SVG Export Plug-In . SVG Version: 6.00 Build 0)  -->
<svg version="1.1" id="圖層_1" xmlns="http://www.w3.org/2000/svg" xmlns:xlink="http://www.w3.org/1999/xlink" x="0px" y="0px"
	 viewBox="0 0 24 24" style="enable-background:new 0 0 24 24;" xml:space="preserve">
<path d="M16.7,13.1c0.7-0.9,1-2.1,1-3.3C17.8,6.6,15.2,4,12,4C8.8,4,6.2,6.6,6.2,9.8c0,1.2,0.4,2.4,1.1,3.3
	c-1.9,1.5-3.1,3.8-3.1,6.3c0,0.6,0.5,1.1,1.1,1.1h0c0.6,0,1.1-0.5,1.1-1.1c0-1.9,1-3.7,2.5-4.7c0.9,0.6,1.9,0.9,3.1,0.9
	c1.1,0,2.2-0.3,3.1-0.9c1.6,1,2.6,2.8,2.6,4.7c0,0.6,0.5,1.1,1.1,1.1c0.6,0,1.1-0.5,1.1-1.1C19.9,16.9,18.7,14.6,16.7,13.1z
	 M8.5,9.8c0-1.9,1.6-3.5,3.5-3.5s3.5,1.6,3.5,3.5s-1.6,3.5-3.5,3.5S8.5,11.7,8.5,9.8z"/>
</svg>
