<svg width="24" height="24" viewBox="0 0 24 24" xmlns="http://www.w3.org/2000/svg">
    <g fill="#26D07C" fill-rule="evenodd">
        <path d="M15.867 11.79h-2.4V9.414c0-.547-.42-1.014-.938-1.041a.993.993 0 0 0-.903.48c-.098.159-.14.347-.14.535v4.2c0 .102.082.183.182.183h4.227c.614 0 1.1-.561.97-1.198-.095-.463-.526-.783-.998-.783"/>
        <path d="M13.68 20.41c-4.484.472-8.343-2.708-8.985-6.936h-1.53a.165.165 0 0 1-.136-.257l2.77-4.106a.164.164 0 0 1 .273 0l2.77 4.106a.165.165 0 0 1-.136.257H7.18c.615 2.802 3.258 4.848 6.302 4.496 2.633-.304 4.749-2.435 5.043-5.079.388-3.483-2.33-6.443-5.724-6.443a5.71 5.71 0 0 0-3.97 1.605.183.183 0 0 1-.27-.015L7.252 6.42a.187.187 0 0 1 .018-.254A8.14 8.14 0 0 1 12.8 4c4.714 0 8.513 4.014 8.179 8.817-.275 3.943-3.383 7.183-7.3 7.594"/>
    </g>
</svg>
