<svg id="圖層_1" data-name="圖層 1" xmlns="http://www.w3.org/2000/svg" viewBox="0 0 18 18">
  <g>
    <rect x="4.97" y="7.13" width="1.99" height="0.69"/>
    <rect x="8.07" y="7.13" width="1.9" height="0.69"/>
    <rect x="11.09" y="7.13" width="2.03" height="0.69"/>
    <rect x="5.63" y="9.92" width="6.85" height="0.54"/>
    <rect x="5.63" y="11.15" width="6.85" height="0.52"/>
    <rect x="5.63" y="12.37" width="6.85" height="0.52"/>
    <path d="M9,0a9,9,0,1,0,9,9A9,9,0,0,0,9,0ZM3.28,3.62H8.46V3H9.68v.62h5.1v.91H9.68V5h4.43v.83H4V5H8.46V4.53H3.28Zm11,2.71v2.3H3.82V6.33Zm.38,9h0a34.55,34.55,0,0,0-4.5-.93l.33-.65h-3l.41.55a18.44,18.44,0,0,1-4.4,1L3,14.44a22.8,22.8,0,0,0,3.74-.69H4.42V9.12h9.27v4.63H11.16a30.87,30.87,0,0,1,3.84.69Z" fill-rule="evenodd"/>
  </g>
</svg>
