<svg id="圖層_1" data-name="圖層 1" xmlns="http://www.w3.org/2000/svg" viewBox="0 0 15 15">
  <path d="M11.5,15,7.8,13a.48.48,0,0,0-.7,0L3.6,15a.78.78,0,0,1-.8-.1c-.1-.1-.2-.2-.2-.3v-.5l.7-4V9.7c0-.1-.1-.2-.2-.3L.2,6.5A1.49,1.49,0,0,1,0,5.6c0-.1.1-.2.2-.3s.3-.1.4-.2l3.8-.6c.1,0,.2-.1.3-.1A.27.27,0,0,0,5,4.1L6.8.3A1.08,1.08,0,0,1,7.5,0h.3L9.9,4.2a1,1,0,0,0,.6.5l3.9.6a.76.76,0,0,1,.4.1l.2.1v.2c0,.1.1.3,0,.4a.52.52,0,0,1-.2.4L12,9.4a1.17,1.17,0,0,0-.2.7l.7,4a1.14,1.14,0,0,1-.3.8c-.2,0-.3.1-.5.1ZM3.1,14Zm4.4-2.2a1.61,1.61,0,0,1,.9.3l3,1.6-.6-3.6a2.1,2.1,0,0,1,.5-1.5l2.4-2.5-3.4-.5A1.74,1.74,0,0,1,9,4.6L7.4,1.4,6,4.5a1.79,1.79,0,0,1-.5.7,3.55,3.55,0,0,1-.9.4l-3.4.5L3.7,8.7a2.51,2.51,0,0,1,.4.7,1.39,1.39,0,0,1,0,.9l-.6,3.5,3-1.7A2.24,2.24,0,0,1,7.5,11.8ZM.8,6.2Zm13.3-.5Z" fill="#ff9500"/>
</svg>
