<svg width="15" height="15" xmlns="http://www.w3.org/2000/svg">
    <path d="m8.185.459 1.72 3.743c.075.224.3.374.524.449l3.889.598c.673 0 .897.749.449 1.198l-2.842 2.92c-.15.15-.225.449-.225.673l.673 4.042c.075.599-.523 1.123-1.047.823L7.811 12.96a.56.56 0 0 0-.673 0l-3.515 1.946c-.523.3-1.197-.15-1.047-.823l.673-4.042c.075-.224-.075-.524-.224-.674L.183 6.447c-.374-.449-.15-1.198.449-1.272l3.889-.6c.224 0 .448-.224.523-.448L6.764.384C7.138-.14 7.886-.14 8.185.46z" fill="#FF9500" fill-rule="nonzero"/>
</svg>
