<svg id="圖層_1" data-name="圖層 1" xmlns="http://www.w3.org/2000/svg" viewBox="0 0 25 25">
  <path d="M20.51,10,19.26,6.09a2,2,0,0,0-1.91-1.4H7.65a2,2,0,0,0-1.91,1.4L4.49,10l0,.21a3.58,3.58,0,0,0,.86,2.09v5.1a2.86,2.86,0,0,0,2.84,2.87h8.58a2.86,2.86,0,0,0,2.83-2.87v-5.1a3.53,3.53,0,0,0,.87-2.09Zm-2.29.24a1.29,1.29,0,0,1-.35.66,1.31,1.31,0,0,1-.93.39h0a1.3,1.3,0,0,1-1-.48L15.6,6.94h1.57ZM11.4,6.94h2.2l.27,3.19-.18.42a1.3,1.3,0,0,1-1.19.78h0a1.29,1.29,0,0,1-1.18-.78l-.18-.4Zm-3.57,0H9.4l-.33,3.89a1.28,1.28,0,0,1-1,.5h0a1.37,1.37,0,0,1-.92-.39,1.29,1.29,0,0,1-.35-.66Zm9,11.12H8.21a.61.61,0,0,1-.59-.62V13.53l.43.05a3.52,3.52,0,0,0,2.23-.78,3.54,3.54,0,0,0,2.21.78h0a3.54,3.54,0,0,0,2.21-.78,3.78,3.78,0,0,0,2.22.78,3,3,0,0,0,.43-.05v3.91A.6.6,0,0,1,16.79,18.06Z" fill="#26d07c"/>
</svg>
