<svg id="圖層_1" data-name="圖層 1" xmlns="http://www.w3.org/2000/svg" viewBox="0 0 25 24">
  <g>
    <path d="M16.75,19.62H7.38A3.84,3.84,0,0,1,3.44,15.9V8.1A3.84,3.84,0,0,1,7.38,4.38h9.37A3.84,3.84,0,0,1,20.69,8.1v2.28H18.44V8.1a1.6,1.6,0,0,0-1.69-1.48H7.38A1.6,1.6,0,0,0,5.69,8.1v7.8a1.6,1.6,0,0,0,1.69,1.48h9.37a1.6,1.6,0,0,0,1.69-1.48V13.57h2.25V15.9A3.84,3.84,0,0,1,16.75,19.62Z" fill="#26d07c"/>
    <path d="M15.06,15.5a3.44,3.44,0,0,1-2.47-1,3.5,3.5,0,0,1,2.47-6h4.51a2,2,0,0,1,2,2v3A2,2,0,0,1,21,14.91a2,2,0,0,1-1.41.59Zm4.25-2Zm-4.25-2.75a1.24,1.24,0,0,0-.88,2.13,1.23,1.23,0,0,0,.88.37h4.25v-2.5Z" fill="#26d07c"/>
  </g>
</svg>
